<svg width="506" height="1675" viewBox="0 0 506 1675" fill="none" xmlns="http://www.w3.org/2000/svg">
<path d="M146.239 359.864C153.429 354.611 161.707 407.717 161.707 407.717C161.707 407.717 168.379 474.281 175.174 539.622C181.8 603.35 198.203 689.668 202.742 712.973C203.513 716.926 203.093 720.966 201.331 724.599C198.099 731.266 192.384 741.936 187.34 745.582C185.241 747.099 182.759 747.802 180.265 748.023C172.158 748.744 167.133 740.582 167.116 732.464C167.054 702.031 166.321 626.356 160.898 574.217C154.713 514.757 140.516 412.519 135.38 376.064C134.559 370.233 141.466 363.351 146.239 359.864Z" fill="#3C4C27" fill-opacity="0.9"/>
<path d="M134.348 362.946C126.944 366.652 120.696 324.144 120.696 324.144C120.696 324.144 116.576 271.094 112.284 219.004C107.402 159.757 124.555 96.0557 124.555 96.0557C124.555 96.0557 137.934 46.3657 145.241 55.112C148.345 58.8275 157.604 68.7078 155.743 73.2388C144.089 101.606 124.829 155.125 127.913 192.538C131.726 238.794 141.612 317.734 145.564 348.607C146.293 354.304 139.592 360.322 134.348 362.946Z" fill="#3C4C27" fill-opacity="0.9"/>
<path d="M202.208 740.582C211.365 738.212 220.06 753.565 222.954 759.305C223.653 760.692 224.086 762.154 224.307 763.694C225.737 773.662 231.55 817.932 239.645 929.598C247.363 1036.05 258.405 1090.43 266.3 1117.31C269.988 1129.86 262.599 1146.58 249.456 1151.35C248.946 1151.54 248.435 1151.72 247.921 1151.91C244.69 1153.09 241.487 1153.97 238.449 1154.64C227.519 1157.05 219.135 1148.27 219.746 1137.7C221.931 1099.93 225.795 1014.07 219.764 958.453C212.543 891.861 186.058 803.393 177.207 775.069C175.395 769.271 176.496 762.914 180.681 758.093C186.563 751.318 195.39 742.347 202.208 740.582Z" fill="#3C4C27" fill-opacity="0.9"/>
<path d="M261.719 1160.64C267.552 1156.32 277.284 1158.07 284.312 1160.26C289.844 1161.98 293.802 1166.69 295.516 1172.29C307.207 1210.49 354.191 1363.82 377.745 1438.24C403.679 1520.17 431.632 1599.39 439.74 1622.16C441.242 1626.38 441.376 1630.93 439.863 1635.04C436.608 1643.86 430.106 1659.33 422.823 1664.67C417.915 1668.27 410.705 1668.87 404.415 1668.49C396.379 1668.01 390.469 1661.09 389.171 1653.02C383.209 1615.91 365.086 1509.52 342.649 1438.64C317.64 1359.63 255.12 1248.06 233.993 1211.41C229.734 1204.02 230.288 1194.95 235.563 1188.64C243.726 1178.86 255.587 1165.19 261.719 1160.64Z" fill="#3C4C27" fill-opacity="0.9"/>
<path d="M229.639 1343.92C223.266 1342.86 196.347 1290.66 196.347 1290.66C196.347 1290.66 190.921 1275.31 199.51 1235.06C204.258 1212.8 206.907 1204.74 207.999 1202C208.354 1201.11 208.92 1200.33 209.637 1199.67C211.729 1197.74 216.685 1193.83 221.751 1194.69C228.479 1195.83 230.713 1235.05 230.713 1235.05C230.713 1235.05 231.681 1244.7 223.037 1271.36C213.528 1300.68 224.857 1323.09 224.857 1323.09C224.857 1323.09 236.012 1344.98 229.639 1343.92Z" fill="#3C4C27" fill-opacity="0.7"/>
<path d="M108.215 1144.47C115.044 1139.94 131.747 1133.71 139.235 1131.02C141.705 1130.13 144.363 1129.7 147.113 1129.75C159.333 1130 195.101 1131.45 206.3 1140.06C208.091 1141.44 208.96 1143.44 208.869 1145.41C208.808 1146.73 208.452 1148.16 207.348 1148.92C205.382 1150.29 202.774 1152.32 200.148 1151.97C193.418 1151.08 181.163 1149.35 169.861 1147.15C164.87 1146.18 161.03 1145.39 158.079 1144.73C151.911 1143.37 145.065 1142.97 139.02 1144.14C124.048 1147.03 97.6455 1151.47 108.215 1144.47Z" fill="#3C4C27" fill-opacity="0.7"/>
<path d="M331.603 603.089C330.977 605.242 328.053 604.99 325.944 604.496C324.416 604.138 322.95 603.694 321.393 603.436C309.63 601.488 256.138 592.324 237.145 583.76C221.567 576.735 214.668 566.962 211.721 560.839C209.993 557.249 207.626 553.842 205.716 550.336C205.018 549.056 204.613 547.693 204.97 546.487C206.63 540.885 213.138 536.973 218.246 540.098C231.672 548.311 252.867 560.873 266.842 567.174C290.835 577.993 301.814 583.744 301.814 583.744C301.814 583.744 332.606 599.639 331.603 603.089Z" fill="#3C4C27" fill-opacity="0.7"/>
<path d="M342.858 526.988C343.956 529.122 341.709 530.422 339.825 531.105C338.409 531.618 336.966 532.014 335.602 532.622C325.475 537.136 279.952 557.063 259.91 559.636C243.5 561.743 231.381 557.047 224.755 553.369C220.82 551.184 216.519 549.502 212.527 547.438C211.135 546.718 209.902 545.786 209.301 544.607C206.421 538.953 208.457 532.256 214.62 532.261C230.402 532.273 254.792 531.948 269.48 530.062C294.854 526.803 307.047 525.994 307.047 525.994C307.047 525.994 341.076 523.527 342.858 526.988Z" fill="#3C4C27" fill-opacity="0.7"/>
<path d="M252.403 1.56904C253.948 2.38295 252.757 4.1124 251.615 5.32042C250.749 6.23685 249.827 7.08838 249.026 8.04645C243.139 15.09 216.752 46.2872 202.975 56.3164C192.164 64.187 182.067 66.6486 175.844 67.3724C171.732 67.8506 167.613 68.816 163.471 69.1394C162.4 69.223 161.396 69.141 160.668 68.7534C156.693 66.6362 155.14 62.0482 158.859 59.9071C170.346 53.2936 189.178 42.182 199.706 34.5176C217.165 21.8068 225.818 16.1527 225.818 16.1527C225.818 16.1527 249.894 0.247871 252.403 1.56904Z" fill="#3C4C27" fill-opacity="0.7"/>
<path d="M255.245 58.7295C255.915 59.963 255.015 60.8309 253.962 61.3872C252.61 62.1019 251.093 62.5128 249.714 63.1868C241.699 67.1057 212.272 81.1808 198.933 83.2592C189.108 84.79 181.396 82.5831 176.487 80.3242C172.334 78.4131 167.187 77.3845 164.099 74.0093C163.91 73.8021 163.747 73.5807 163.62 73.3441C161.471 69.3471 162.829 64.5621 167.235 64.465C178.126 64.2249 194.734 63.6123 204.725 62.0553C222.135 59.342 230.522 58.5772 230.522 58.5772C230.522 58.5772 253.922 56.2929 255.245 58.7295Z" fill="#3C4C27" fill-opacity="0.7"/>
<path d="M32.4622 576.97C36.3493 573.955 52.58 601.744 56.8285 609.189C57.5181 610.398 58.305 611.519 59.2509 612.612C67.2381 621.842 107.296 668.216 125.214 690.581C142.831 712.571 158.096 730.519 164.044 737.45C165.796 739.492 167.163 741.753 167.517 744.16C167.973 747.265 167.974 751.568 165.152 753.736C156.449 760.425 142.718 761.465 134.478 752.854C118.91 736.587 96.3606 712.535 83.8793 696.957C64.7667 673.103 57.9898 652.89 56.4179 647.495C56.1421 646.548 55.8469 645.649 55.4546 644.722C51.4712 635.309 28.3623 580.15 32.4622 576.97Z" fill="#3C4C27" fill-opacity="0.7"/>
<path d="M360.356 1050.23C362.437 1051.22 362.317 1053.07 361.747 1054.59C361.11 1056.29 360.082 1057.86 359.437 1059.56C355.452 1070.05 339.792 1110.11 328.16 1123.02C318.74 1133.48 307.173 1136.47 299.689 1137.23C294.706 1137.74 289.616 1139.22 284.605 1139.26C283.493 1139.27 282.397 1139.1 281.431 1138.64C274.886 1135.49 272.365 1128.08 277.893 1123.64C288.76 1114.92 303.755 1102.37 311.873 1093.35C326.937 1076.63 334.762 1069.22 334.762 1069.22C334.762 1069.22 356.438 1048.36 360.356 1050.23Z" fill="#3C4C27" fill-opacity="0.7"/>
<path d="M241.928 419.77C242.851 418.799 243.61 417.955 244.222 417.224C251.39 408.658 228.41 425.066 225.3 435.848L206.88 499.699L182.567 572.005C180.04 579.52 182.773 597.389 186.22 590.262C189.634 583.205 212.337 503.707 212.337 503.707C212.337 503.707 228.898 433.468 241.928 419.77Z" fill="#3C4C27" fill-opacity="0.9"/>
<path d="M95.296 1300.51C91.5817 1296.61 97.9754 1246.11 99.5372 1234.24C99.7566 1232.57 100.239 1231.02 101.043 1229.55C105.976 1220.55 125.95 1186.49 151.152 1175.77C184.29 1161.67 212.618 1156.28 212.618 1156.28C212.618 1156.28 223.916 1155.33 228.306 1159.97C235.78 1167.88 236.489 1179.2 227.082 1183.21C206.667 1191.93 176.788 1205.91 162.595 1218.52C135.953 1242.2 122.432 1265.46 122.432 1265.46C122.432 1265.46 99.5076 1304.93 95.296 1300.51Z" fill="#3C4C27" fill-opacity="0.7"/>
<path d="M-50.4168 420.996C-52.9153 417.638 -26.5678 388.474 -10.6466 371.395C-4.10078 364.373 9.01381 362.929 20.164 363.876C26.9092 364.448 35.5334 364.348 46.1919 362.736C74.0546 358.521 96.8839 354.416 105.631 352.804C108.172 352.336 110.847 352.237 113.481 352.879C117.195 353.785 122.476 355.56 124.76 358.654C125.896 360.192 126.934 364.136 127.829 368.88C130.211 381.506 116.061 390.111 101.374 386.807C82.8964 382.651 59.5738 378.911 42.8335 381.444C34.0008 382.78 27.0034 383.511 21.4759 383.855C10.3194 384.549 -4.18012 387.574 -11.7377 394.021C-26.3471 406.484 -48.0768 424.141 -50.4168 420.996Z" fill="#3C4C27" fill-opacity="0.7"/>
<path d="M-8.83493 331.35C-9.33062 328.409 10.4056 317.268 25.639 309.144C35.0486 304.125 49.1063 308.202 59.7332 313.159C62.8181 314.599 66.4126 315.98 70.5833 317.192C88.2685 322.332 103.16 326.181 110.06 327.92C112.78 328.606 115.454 329.745 117.515 331.76C119.41 333.612 121.49 336.167 121.92 338.77C124.304 353.196 102.139 355.461 89.9657 346.073C81.1446 339.269 71.292 332.926 62.7168 330.434C59.8506 329.601 57.2896 328.794 55.0018 328.018C43.9388 324.265 27.8265 321.597 17.6187 325.27C5.42641 329.657 -8.38786 334.002 -8.83493 331.35Z" fill="#3C4C27" fill-opacity="0.7"/>
</svg>
