<svg width="45" height="56" viewBox="0 0 45 56" fill="none" xmlns="http://www.w3.org/2000/svg">
<mask id="path-1-outside-1_414_374" maskUnits="userSpaceOnUse" x="0" y="3" width="44" height="44" fill="black">
<rect fill="white" y="3" width="44" height="44"/>
<path d="M2.925 7.26H42.255V9.915H2.925V7.26ZM2.925 29.355H41.94V32.01H2.925V29.355ZM3.465 35.115H20.07V37.68H3.465V35.115ZM26.01 41.595H38.34V44.115H26.01V41.595ZM5.94 12.66H39.195V15.18H5.94V12.66ZM20.655 4.2H24.075V14.325H20.655V4.2ZM10.845 19.995V23.55H34.335V19.995H10.845ZM7.65 17.61H37.62V25.935H7.65V17.61ZM24.615 34.17H40.14V45.42H36.99V36.69H27.675V45.555H24.615V34.17ZM18.855 35.115H21.96C21.96 35.115 21.96 35.265 21.96 35.565C21.96 35.865 21.93 36.135 21.87 36.375C21.63 38.955 21.36 40.86 21.06 42.09C20.79 43.32 20.43 44.175 19.98 44.655C19.65 44.955 19.29 45.165 18.9 45.285C18.51 45.435 18.03 45.525 17.46 45.555C17.04 45.585 16.395 45.585 15.525 45.555C14.655 45.555 13.725 45.54 12.735 45.51C12.735 45.15 12.66 44.715 12.51 44.205C12.39 43.725 12.225 43.305 12.015 42.945C12.915 43.035 13.74 43.08 14.49 43.08C15.27 43.11 15.81 43.125 16.11 43.125C16.47 43.125 16.74 43.095 16.92 43.035C17.13 43.005 17.31 42.915 17.46 42.765C17.76 42.495 18.015 41.82 18.225 40.74C18.465 39.63 18.675 37.89 18.855 35.52V35.115ZM10.62 32.19H13.635C13.455 33.87 13.17 35.415 12.78 36.825C12.42 38.205 11.865 39.465 11.115 40.605C10.365 41.715 9.36 42.675 8.1 43.485C6.87 44.325 5.325 45.045 3.465 45.645C3.315 45.315 3.06 44.91 2.7 44.43C2.37 43.98 2.055 43.635 1.755 43.395C4.005 42.765 5.73 41.94 6.93 40.92C8.16 39.87 9.03 38.625 9.54 37.185C10.08 35.745 10.44 34.08 10.62 32.19ZM28.89 25.485L32.31 26.25C31.89 26.94 31.47 27.585 31.05 28.185C30.63 28.755 30.225 29.265 29.835 29.715L26.955 29.04C27.255 28.5 27.6 27.9 27.99 27.24C28.38 26.55 28.68 25.965 28.89 25.485ZM12.87 26.295L15.975 25.665C16.455 26.115 16.89 26.655 17.28 27.285C17.67 27.885 17.955 28.44 18.135 28.95L14.85 29.715C14.7 29.205 14.43 28.635 14.04 28.005C13.68 27.375 13.29 26.805 12.87 26.295Z"/>
</mask>
<path d="M2.925 7.26H42.255V9.915H2.925V7.26ZM2.925 29.355H41.94V32.01H2.925V29.355ZM3.465 35.115H20.07V37.68H3.465V35.115ZM26.01 41.595H38.34V44.115H26.01V41.595ZM5.94 12.66H39.195V15.18H5.94V12.66ZM20.655 4.2H24.075V14.325H20.655V4.2ZM10.845 19.995V23.55H34.335V19.995H10.845ZM7.65 17.61H37.62V25.935H7.65V17.61ZM24.615 34.17H40.14V45.42H36.99V36.69H27.675V45.555H24.615V34.17ZM18.855 35.115H21.96C21.96 35.115 21.96 35.265 21.96 35.565C21.96 35.865 21.93 36.135 21.87 36.375C21.63 38.955 21.36 40.86 21.06 42.09C20.79 43.32 20.43 44.175 19.98 44.655C19.65 44.955 19.29 45.165 18.9 45.285C18.51 45.435 18.03 45.525 17.46 45.555C17.04 45.585 16.395 45.585 15.525 45.555C14.655 45.555 13.725 45.54 12.735 45.51C12.735 45.15 12.66 44.715 12.51 44.205C12.39 43.725 12.225 43.305 12.015 42.945C12.915 43.035 13.74 43.08 14.49 43.08C15.27 43.11 15.81 43.125 16.11 43.125C16.47 43.125 16.74 43.095 16.92 43.035C17.13 43.005 17.31 42.915 17.46 42.765C17.76 42.495 18.015 41.82 18.225 40.74C18.465 39.63 18.675 37.89 18.855 35.52V35.115ZM10.62 32.19H13.635C13.455 33.87 13.17 35.415 12.78 36.825C12.42 38.205 11.865 39.465 11.115 40.605C10.365 41.715 9.36 42.675 8.1 43.485C6.87 44.325 5.325 45.045 3.465 45.645C3.315 45.315 3.06 44.91 2.7 44.43C2.37 43.98 2.055 43.635 1.755 43.395C4.005 42.765 5.73 41.94 6.93 40.92C8.16 39.87 9.03 38.625 9.54 37.185C10.08 35.745 10.44 34.08 10.62 32.19ZM28.89 25.485L32.31 26.25C31.89 26.94 31.47 27.585 31.05 28.185C30.63 28.755 30.225 29.265 29.835 29.715L26.955 29.04C27.255 28.5 27.6 27.9 27.99 27.24C28.38 26.55 28.68 25.965 28.89 25.485ZM12.87 26.295L15.975 25.665C16.455 26.115 16.89 26.655 17.28 27.285C17.67 27.885 17.955 28.44 18.135 28.95L14.85 29.715C14.7 29.205 14.43 28.635 14.04 28.005C13.68 27.375 13.29 26.805 12.87 26.295Z" fill="#3C4C27"/>
<path d="M2.925 7.26V6.46H2.125V7.26H2.925ZM42.255 7.26H43.055V6.46H42.255V7.26ZM42.255 9.915V10.715H43.055V9.915H42.255ZM2.925 9.915H2.125V10.715H2.925V9.915ZM2.925 29.355V28.555H2.125V29.355H2.925ZM41.94 29.355H42.74V28.555H41.94V29.355ZM41.94 32.01V32.81H42.74V32.01H41.94ZM2.925 32.01H2.125V32.81H2.925V32.01ZM3.465 35.115V34.315H2.665V35.115H3.465ZM20.07 35.115H20.87V34.315H20.07V35.115ZM20.07 37.68V38.48H20.87V37.68H20.07ZM3.465 37.68H2.665V38.48H3.465V37.68ZM26.01 41.595V40.795H25.21V41.595H26.01ZM38.34 41.595H39.14V40.795H38.34V41.595ZM38.34 44.115V44.915H39.14V44.115H38.34ZM26.01 44.115H25.21V44.915H26.01V44.115ZM5.94 12.66V11.86H5.14V12.66H5.94ZM39.195 12.66H39.995V11.86H39.195V12.66ZM39.195 15.18V15.98H39.995V15.18H39.195ZM5.94 15.18H5.14V15.98H5.94V15.18ZM20.655 4.2V3.4H19.855V4.2H20.655ZM24.075 4.2H24.875V3.4H24.075V4.2ZM24.075 14.325V15.125H24.875V14.325H24.075ZM20.655 14.325H19.855V15.125H20.655V14.325ZM10.845 19.995V19.195H10.045V19.995H10.845ZM10.845 23.55H10.045V24.35H10.845V23.55ZM34.335 23.55V24.35H35.135V23.55H34.335ZM34.335 19.995H35.135V19.195H34.335V19.995ZM7.65 17.61V16.81H6.85V17.61H7.65ZM37.62 17.61H38.42V16.81H37.62V17.61ZM37.62 25.935V26.735H38.42V25.935H37.62ZM7.65 25.935H6.85V26.735H7.65V25.935ZM24.615 34.17V33.37H23.815V34.17H24.615ZM40.14 34.17H40.94V33.37H40.14V34.17ZM40.14 45.42V46.22H40.94V45.42H40.14ZM36.99 45.42H36.19V46.22H36.99V45.42ZM36.99 36.69H37.79V35.89H36.99V36.69ZM27.675 36.69V35.89H26.875V36.69H27.675ZM27.675 45.555V46.355H28.475V45.555H27.675ZM24.615 45.555H23.815V46.355H24.615V45.555ZM18.855 35.115V34.315H18.055V35.115H18.855ZM21.96 35.115H22.76V34.315H21.96V35.115ZM21.87 36.375L21.0939 36.181L21.0791 36.2402L21.0734 36.3009L21.87 36.375ZM21.06 42.09L20.2828 41.9004L20.2806 41.9094L20.2786 41.9185L21.06 42.09ZM19.98 44.655L20.5181 45.247L20.5418 45.2255L20.5636 45.2022L19.98 44.655ZM18.9 45.285L18.6647 44.5204L18.6385 44.5285L18.6128 44.5383L18.9 45.285ZM17.46 45.555L17.418 44.7561L17.4105 44.7565L17.403 44.757L17.46 45.555ZM15.525 45.555L15.5526 44.7555L15.5388 44.755H15.525V45.555ZM12.735 45.51H11.935V46.2861L12.7108 46.3096L12.735 45.51ZM12.51 44.205L11.7339 44.399L11.7379 44.415L11.7425 44.4307L12.51 44.205ZM12.015 42.945L12.0946 42.149L10.5334 41.9929L11.324 43.3481L12.015 42.945ZM14.49 43.08L14.5207 42.2806L14.5054 42.28H14.49V43.08ZM16.92 43.035L16.8069 42.243L16.7355 42.2532L16.667 42.2761L16.92 43.035ZM17.46 42.765L16.9248 42.1704L16.9092 42.1844L16.8943 42.1993L17.46 42.765ZM18.225 40.74L17.4431 40.5709L17.4413 40.5791L17.4397 40.5873L18.225 40.74ZM18.855 35.52L19.6527 35.5806L19.655 35.5503V35.52H18.855ZM10.62 32.19V31.39H9.89257L9.8236 32.1142L10.62 32.19ZM13.635 32.19L14.4304 32.2752L14.5253 31.39H13.635V32.19ZM12.78 36.825L12.0089 36.6117L12.0059 36.6231L12.78 36.825ZM11.115 40.605L11.7779 41.0529L11.7833 41.0447L11.115 40.605ZM8.1 43.485L7.66739 42.8121L7.65803 42.8181L7.64883 42.8244L8.1 43.485ZM3.465 45.645L2.73671 45.976L3.03184 46.6253L3.7106 46.4064L3.465 45.645ZM2.7 44.43L2.05484 44.9031L2.06 44.91L2.7 44.43ZM1.755 43.395L1.5393 42.6246L0.0371589 43.0452L1.25524 44.0197L1.755 43.395ZM6.93 40.92L7.44812 41.5296L7.44941 41.5285L6.93 40.92ZM9.54 37.185L8.79094 36.9041L8.78835 36.911L8.7859 36.9179L9.54 37.185ZM28.89 25.485L29.0646 24.7043L28.4213 24.5604L28.1571 25.1643L28.89 25.485ZM32.31 26.25L32.9934 26.666L33.5735 25.7129L32.4846 25.4693L32.31 26.25ZM31.05 28.185L31.694 28.6596L31.6998 28.6517L31.7054 28.6438L31.05 28.185ZM29.835 29.715L29.6524 30.4939L30.123 30.6042L30.4396 30.2389L29.835 29.715ZM26.955 29.04L26.2557 28.6515L25.7414 29.5772L26.7724 29.8189L26.955 29.04ZM27.99 27.24L28.6787 27.647L28.6827 27.6404L28.6865 27.6336L27.99 27.24ZM12.87 26.295L12.7109 25.511L11.406 25.7757L12.2525 26.8036L12.87 26.295ZM15.975 25.665L16.5222 25.0814L16.2208 24.7988L15.8159 24.881L15.975 25.665ZM17.28 27.285L16.5998 27.7061L16.6044 27.7136L16.6092 27.721L17.28 27.285ZM18.135 28.95L18.3164 29.7292L19.1868 29.5265L18.8894 28.6837L18.135 28.95ZM14.85 29.715L14.0825 29.9407L14.2957 30.6655L15.0314 30.4942L14.85 29.715ZM14.04 28.005L13.3454 28.4019L13.3524 28.4141L13.3598 28.4261L14.04 28.005ZM2.925 7.26V8.06H42.255V7.26V6.46H2.925V7.26ZM42.255 7.26H41.455V9.915H42.255H43.055V7.26H42.255ZM42.255 9.915V9.115H2.925V9.915V10.715H42.255V9.915ZM2.925 9.915H3.725V7.26H2.925H2.125V9.915H2.925ZM2.925 29.355V30.155H41.94V29.355V28.555H2.925V29.355ZM41.94 29.355H41.14V32.01H41.94H42.74V29.355H41.94ZM41.94 32.01V31.21H2.925V32.01V32.81H41.94V32.01ZM2.925 32.01H3.725V29.355H2.925H2.125V32.01H2.925ZM3.465 35.115V35.915H20.07V35.115V34.315H3.465V35.115ZM20.07 35.115H19.27V37.68H20.07H20.87V35.115H20.07ZM20.07 37.68V36.88H3.465V37.68V38.48H20.07V37.68ZM3.465 37.68H4.265V35.115H3.465H2.665V37.68H3.465ZM26.01 41.595V42.395H38.34V41.595V40.795H26.01V41.595ZM38.34 41.595H37.54V44.115H38.34H39.14V41.595H38.34ZM38.34 44.115V43.315H26.01V44.115V44.915H38.34V44.115ZM26.01 44.115H26.81V41.595H26.01H25.21V44.115H26.01ZM5.94 12.66V13.46H39.195V12.66V11.86H5.94V12.66ZM39.195 12.66H38.395V15.18H39.195H39.995V12.66H39.195ZM39.195 15.18V14.38H5.94V15.18V15.98H39.195V15.18ZM5.94 15.18H6.74V12.66H5.94H5.14V15.18H5.94ZM20.655 4.2V5H24.075V4.2V3.4H20.655V4.2ZM24.075 4.2H23.275V14.325H24.075H24.875V4.2H24.075ZM24.075 14.325V13.525H20.655V14.325V15.125H24.075V14.325ZM20.655 14.325H21.455V4.2H20.655H19.855V14.325H20.655ZM10.845 19.995H10.045V23.55H10.845H11.645V19.995H10.845ZM10.845 23.55V24.35H34.335V23.55V22.75H10.845V23.55ZM34.335 23.55H35.135V19.995H34.335H33.535V23.55H34.335ZM34.335 19.995V19.195H10.845V19.995V20.795H34.335V19.995ZM7.65 17.61V18.41H37.62V17.61V16.81H7.65V17.61ZM37.62 17.61H36.82V25.935H37.62H38.42V17.61H37.62ZM37.62 25.935V25.135H7.65V25.935V26.735H37.62V25.935ZM7.65 25.935H8.45V17.61H7.65H6.85V25.935H7.65ZM24.615 34.17V34.97H40.14V34.17V33.37H24.615V34.17ZM40.14 34.17H39.34V45.42H40.14H40.94V34.17H40.14ZM40.14 45.42V44.62H36.99V45.42V46.22H40.14V45.42ZM36.99 45.42H37.79V36.69H36.99H36.19V45.42H36.99ZM36.99 36.69V35.89H27.675V36.69V37.49H36.99V36.69ZM27.675 36.69H26.875V45.555H27.675H28.475V36.69H27.675ZM27.675 45.555V44.755H24.615V45.555V46.355H27.675V45.555ZM24.615 45.555H25.415V34.17H24.615H23.815V45.555H24.615ZM18.855 35.115V35.915H21.96V35.115V34.315H18.855V35.115ZM21.96 35.115C21.16 35.115 21.16 35.115 21.16 35.115C21.16 35.115 21.16 35.115 21.16 35.115C21.16 35.115 21.16 35.115 21.16 35.115C21.16 35.115 21.16 35.115 21.16 35.115C21.16 35.115 21.16 35.115 21.16 35.115C21.16 35.115 21.16 35.1151 21.16 35.1151C21.16 35.1151 21.16 35.1151 21.16 35.1151C21.16 35.1151 21.16 35.1151 21.16 35.1151C21.16 35.1151 21.16 35.1151 21.16 35.1151C21.16 35.1152 21.16 35.1152 21.16 35.1152C21.16 35.1152 21.16 35.1152 21.16 35.1152C21.16 35.1152 21.16 35.1152 21.16 35.1152C21.16 35.1153 21.16 35.1153 21.16 35.1153C21.16 35.1153 21.16 35.1153 21.16 35.1153C21.16 35.1154 21.16 35.1154 21.16 35.1154C21.16 35.1154 21.16 35.1154 21.16 35.1154C21.16 35.1155 21.16 35.1155 21.16 35.1155C21.16 35.1155 21.16 35.1155 21.16 35.1156C21.16 35.1156 21.16 35.1156 21.16 35.1156C21.16 35.1156 21.16 35.1157 21.16 35.1157C21.16 35.1157 21.16 35.1157 21.16 35.1158C21.16 35.1158 21.16 35.1158 21.16 35.1158C21.16 35.1159 21.16 35.1159 21.16 35.1159C21.16 35.1159 21.16 35.116 21.16 35.116C21.16 35.116 21.16 35.116 21.16 35.1161C21.16 35.1161 21.16 35.1161 21.16 35.1162C21.16 35.1162 21.16 35.1162 21.16 35.1162C21.16 35.1163 21.16 35.1163 21.16 35.1163C21.16 35.1164 21.16 35.1164 21.16 35.1164C21.16 35.1165 21.16 35.1165 21.16 35.1165C21.16 35.1166 21.16 35.1166 21.16 35.1166C21.16 35.1167 21.16 35.1167 21.16 35.1168C21.16 35.1168 21.16 35.1168 21.16 35.1169C21.16 35.1169 21.16 35.1169 21.16 35.117C21.16 35.117 21.16 35.1171 21.16 35.1171C21.16 35.1171 21.16 35.1172 21.16 35.1172C21.16 35.1173 21.16 35.1173 21.16 35.1173C21.16 35.1174 21.16 35.1174 21.16 35.1175C21.16 35.1175 21.16 35.1176 21.16 35.1176C21.16 35.1177 21.16 35.1177 21.16 35.1177C21.16 35.1178 21.16 35.1178 21.16 35.1179C21.16 35.1179 21.16 35.118 21.16 35.118C21.16 35.1181 21.16 35.1181 21.16 35.1182C21.16 35.1182 21.16 35.1183 21.16 35.1183C21.16 35.1184 21.16 35.1184 21.16 35.1185C21.16 35.1185 21.16 35.1186 21.16 35.1186C21.16 35.1187 21.16 35.1187 21.16 35.1188C21.16 35.1188 21.16 35.1189 21.16 35.119C21.16 35.119 21.16 35.1191 21.16 35.1191C21.16 35.1192 21.16 35.1192 21.16 35.1193C21.16 35.1193 21.16 35.1194 21.16 35.1195C21.16 35.1195 21.16 35.1196 21.16 35.1196C21.16 35.1197 21.16 35.1198 21.16 35.1198C21.16 35.1199 21.16 35.1199 21.16 35.12C21.16 35.1201 21.16 35.1201 21.16 35.1202C21.16 35.1203 21.16 35.1203 21.16 35.1204C21.16 35.1204 21.16 35.1205 21.16 35.1206C21.16 35.1206 21.16 35.1207 21.16 35.1208C21.16 35.1208 21.16 35.1209 21.16 35.121C21.16 35.121 21.16 35.1211 21.16 35.1212C21.16 35.1212 21.16 35.1213 21.16 35.1214C21.16 35.1215 21.16 35.1215 21.16 35.1216C21.16 35.1217 21.16 35.1217 21.16 35.1218C21.16 35.1219 21.16 35.122 21.16 35.122C21.16 35.1221 21.16 35.1222 21.16 35.1223C21.16 35.1223 21.16 35.1224 21.16 35.1225C21.16 35.1226 21.16 35.1226 21.16 35.1227C21.16 35.1228 21.16 35.1229 21.16 35.1229C21.16 35.123 21.16 35.1231 21.16 35.1232C21.16 35.1233 21.16 35.1233 21.16 35.1234C21.16 35.1235 21.16 35.1236 21.16 35.1237C21.16 35.1237 21.16 35.1238 21.16 35.1239C21.16 35.124 21.16 35.1241 21.16 35.1241C21.16 35.1242 21.16 35.1243 21.16 35.1244C21.16 35.1245 21.16 35.1246 21.16 35.1247C21.16 35.1247 21.16 35.1248 21.16 35.1249C21.16 35.125 21.16 35.1251 21.16 35.1252C21.16 35.1253 21.16 35.1254 21.16 35.1254C21.16 35.1255 21.16 35.1256 21.16 35.1257C21.16 35.1258 21.16 35.1259 21.16 35.126C21.16 35.1261 21.16 35.1262 21.16 35.1263C21.16 35.1264 21.16 35.1264 21.16 35.1265C21.16 35.1266 21.16 35.1267 21.16 35.1268C21.16 35.1269 21.16 35.127 21.16 35.1271C21.16 35.1272 21.16 35.1273 21.16 35.1274C21.16 35.1275 21.16 35.1276 21.16 35.1277C21.16 35.1278 21.16 35.1279 21.16 35.128C21.16 35.1281 21.16 35.1282 21.16 35.1283C21.16 35.1284 21.16 35.1285 21.16 35.1286C21.16 35.1287 21.16 35.1288 21.16 35.1289C21.16 35.129 21.16 35.1291 21.16 35.1292C21.16 35.1293 21.16 35.1294 21.16 35.1295C21.16 35.1296 21.16 35.1297 21.16 35.1298C21.16 35.13 21.16 35.1301 21.16 35.1302C21.16 35.1303 21.16 35.1304 21.16 35.1305C21.16 35.1306 21.16 35.1307 21.16 35.1308C21.16 35.1309 21.16 35.131 21.16 35.1311C21.16 35.1313 21.16 35.1314 21.16 35.1315C21.16 35.1316 21.16 35.1317 21.16 35.1318C21.16 35.1319 21.16 35.132 21.16 35.1322C21.16 35.1323 21.16 35.1324 21.16 35.1325C21.16 35.1326 21.16 35.1327 21.16 35.1329C21.16 35.133 21.16 35.1331 21.16 35.1332C21.16 35.1333 21.16 35.1334 21.16 35.1336C21.16 35.1337 21.16 35.1338 21.16 35.1339C21.16 35.134 21.16 35.1342 21.16 35.1343C21.16 35.1344 21.16 35.1345 21.16 35.1347C21.16 35.1348 21.16 35.1349 21.16 35.135C21.16 35.1351 21.16 35.1353 21.16 35.1354C21.16 35.1355 21.16 35.1356 21.16 35.1358C21.16 35.1359 21.16 35.136 21.16 35.1362C21.16 35.1363 21.16 35.1364 21.16 35.1365C21.16 35.1367 21.16 35.1368 21.16 35.1369C21.16 35.137 21.16 35.1372 21.16 35.1373C21.16 35.1374 21.16 35.1376 21.16 35.1377C21.16 35.1378 21.16 35.138 21.16 35.1381C21.16 35.1382 21.16 35.1384 21.16 35.1385C21.16 35.1386 21.16 35.1388 21.16 35.1389C21.16 35.139 21.16 35.1392 21.16 35.1393C21.16 35.1394 21.16 35.1396 21.16 35.1397C21.16 35.1399 21.16 35.14 21.16 35.1401C21.16 35.1403 21.16 35.1404 21.16 35.1405C21.16 35.1407 21.16 35.1408 21.16 35.141C21.16 35.1411 21.16 35.1413 21.16 35.1414C21.16 35.1415 21.16 35.1417 21.16 35.1418C21.16 35.142 21.16 35.1421 21.16 35.1423C21.16 35.1424 21.16 35.1425 21.16 35.1427C21.16 35.1428 21.16 35.143 21.16 35.1431C21.16 35.1433 21.16 35.1434 21.16 35.1436C21.16 35.1437 21.16 35.1439 21.16 35.144C21.16 35.1442 21.16 35.1443 21.16 35.1445C21.16 35.1446 21.16 35.1448 21.16 35.1449C21.16 35.1451 21.16 35.1452 21.16 35.1454C21.16 35.1455 21.16 35.1457 21.16 35.1458C21.16 35.146 21.16 35.1461 21.16 35.1463C21.16 35.1464 21.16 35.1466 21.16 35.1468C21.16 35.1469 21.16 35.1471 21.16 35.1472C21.16 35.1474 21.16 35.1475 21.16 35.1477C21.16 35.1479 21.16 35.148 21.16 35.1482C21.16 35.1483 21.16 35.1485 21.16 35.1486C21.16 35.1488 21.16 35.149 21.16 35.1491C21.16 35.1493 21.16 35.1495 21.16 35.1496C21.16 35.1498 21.16 35.1499 21.16 35.1501C21.16 35.1503 21.16 35.1504 21.16 35.1506C21.16 35.1508 21.16 35.1509 21.16 35.1511C21.16 35.1513 21.16 35.1514 21.16 35.1516C21.16 35.1518 21.16 35.1519 21.16 35.1521C21.16 35.1523 21.16 35.1524 21.16 35.1526C21.16 35.1528 21.16 35.1529 21.16 35.1531C21.16 35.1533 21.16 35.1535 21.16 35.1536C21.16 35.1538 21.16 35.154 21.16 35.1541C21.16 35.1543 21.16 35.1545 21.16 35.1547C21.16 35.1548 21.16 35.155 21.16 35.1552C21.16 35.1554 21.16 35.1555 21.16 35.1557C21.16 35.1559 21.16 35.1561 21.16 35.1562C21.16 35.1564 21.16 35.1566 21.16 35.1568C21.16 35.157 21.16 35.1571 21.16 35.1573C21.16 35.1575 21.16 35.1577 21.16 35.1579C21.16 35.158 21.16 35.1582 21.16 35.1584C21.16 35.1586 21.16 35.1588 21.16 35.1589C21.16 35.1591 21.16 35.1593 21.16 35.1595C21.16 35.1597 21.16 35.1599 21.16 35.16C21.16 35.1602 21.16 35.1604 21.16 35.1606C21.16 35.1608 21.16 35.161 21.16 35.1612C21.16 35.1614 21.16 35.1615 21.16 35.1617C21.16 35.1619 21.16 35.1621 21.16 35.1623C21.16 35.1625 21.16 35.1627 21.16 35.1629C21.16 35.1631 21.16 35.1633 21.16 35.1634C21.16 35.1636 21.16 35.1638 21.16 35.164C21.16 35.1642 21.16 35.1644 21.16 35.1646C21.16 35.1648 21.16 35.165 21.16 35.1652C21.16 35.1654 21.16 35.1656 21.16 35.1658C21.16 35.166 21.16 35.1662 21.16 35.1664C21.16 35.1666 21.16 35.1668 21.16 35.167C21.16 35.1672 21.16 35.1674 21.16 35.1676C21.16 35.1678 21.16 35.168 21.16 35.1682C21.16 35.1684 21.16 35.1686 21.16 35.1688C21.16 35.169 21.16 35.1692 21.16 35.1694C21.16 35.1696 21.16 35.1698 21.16 35.17C21.16 35.1702 21.16 35.1704 21.16 35.1706C21.16 35.1708 21.16 35.171 21.16 35.1712C21.16 35.1714 21.16 35.1717 21.16 35.1719C21.16 35.1721 21.16 35.1723 21.16 35.1725C21.16 35.1727 21.16 35.1729 21.16 35.1731C21.16 35.1733 21.16 35.1735 21.16 35.1738C21.16 35.174 21.16 35.1742 21.16 35.1744C21.16 35.1746 21.16 35.1748 21.16 35.175C21.16 35.1752 21.16 35.1755 21.16 35.1757C21.16 35.1759 21.16 35.1761 21.16 35.1763C21.16 35.1765 21.16 35.1768 21.16 35.177C21.16 35.1772 21.16 35.1774 21.16 35.1776C21.16 35.1778 21.16 35.1781 21.16 35.1783C21.16 35.1785 21.16 35.1787 21.16 35.1789C21.16 35.1792 21.16 35.1794 21.16 35.1796C21.16 35.1798 21.16 35.18 21.16 35.1803C21.16 35.1805 21.16 35.1807 21.16 35.1809C21.16 35.1812 21.16 35.1814 21.16 35.1816C21.16 35.1818 21.16 35.1821 21.16 35.1823C21.16 35.1825 21.16 35.1828 21.16 35.183C21.16 35.1832 21.16 35.1834 21.16 35.1837C21.16 35.1839 21.16 35.1841 21.16 35.1844C21.16 35.1846 21.16 35.1848 21.16 35.185C21.16 35.1853 21.16 35.1855 21.16 35.1857C21.16 35.186 21.16 35.1862 21.16 35.1864C21.16 35.1867 21.16 35.1869 21.16 35.1871C21.16 35.1874 21.16 35.1876 21.16 35.1878C21.16 35.1881 21.16 35.1883 21.16 35.1886C21.16 35.1888 21.16 35.189 21.16 35.1893C21.16 35.1895 21.16 35.1897 21.16 35.19C21.16 35.1902 21.16 35.1905 21.16 35.1907C21.16 35.1909 21.16 35.1912 21.16 35.1914C21.16 35.1917 21.16 35.1919 21.16 35.1922C21.16 35.1924 21.16 35.1926 21.16 35.1929C21.16 35.1931 21.16 35.1934 21.16 35.1936C21.16 35.1939 21.16 35.1941 21.16 35.1944C21.16 35.1946 21.16 35.1948 21.16 35.1951C21.16 35.1953 21.16 35.1956 21.16 35.1958C21.16 35.1961 21.16 35.1963 21.16 35.1966C21.16 35.1968 21.16 35.1971 21.16 35.1973C21.16 35.1976 21.16 35.1978 21.16 35.1981C21.16 35.1983 21.16 35.1986 21.16 35.1988C21.16 35.1991 21.16 35.1993 21.16 35.1996C21.16 35.1999 21.16 35.2001 21.16 35.2004C21.16 35.2006 21.16 35.2009 21.16 35.2011C21.16 35.2014 21.16 35.2016 21.16 35.2019C21.16 35.2022 21.16 35.2024 21.16 35.2027C21.16 35.2029 21.16 35.2032 21.16 35.2035C21.16 35.2037 21.16 35.204 21.16 35.2042C21.16 35.2045 21.16 35.2048 21.16 35.205C21.16 35.2053 21.16 35.2055 21.16 35.2058C21.16 35.2061 21.16 35.2063 21.16 35.2066C21.16 35.2069 21.16 35.2071 21.16 35.2074C21.16 35.2077 21.16 35.2079 21.16 35.2082C21.16 35.2085 21.16 35.2087 21.16 35.209C21.16 35.2093 21.16 35.2095 21.16 35.2098C21.16 35.2101 21.16 35.2103 21.16 35.2106C21.16 35.2109 21.16 35.2111 21.16 35.2114C21.16 35.2117 21.16 35.212 21.16 35.2122C21.16 35.2125 21.16 35.2128 21.16 35.2131C21.16 35.2133 21.16 35.2136 21.16 35.2139C21.16 35.2141 21.16 35.2144 21.16 35.2147C21.16 35.215 21.16 35.2153 21.16 35.2155C21.16 35.2158 21.16 35.2161 21.16 35.2164C21.16 35.2166 21.16 35.2169 21.16 35.2172C21.16 35.2175 21.16 35.2178 21.16 35.218C21.16 35.2183 21.16 35.2186 21.16 35.2189C21.16 35.2192 21.16 35.2194 21.16 35.2197C21.16 35.22 21.16 35.2203 21.16 35.2206C21.16 35.2209 21.16 35.2211 21.16 35.2214C21.16 35.2217 21.16 35.222 21.16 35.2223C21.16 35.2226 21.16 35.2229 21.16 35.2231C21.16 35.2234 21.16 35.2237 21.16 35.224C21.16 35.2243 21.16 35.2246 21.16 35.2249C21.16 35.2252 21.16 35.2255 21.16 35.2257C21.16 35.226 21.16 35.2263 21.16 35.2266C21.16 35.2269 21.16 35.2272 21.16 35.2275C21.16 35.2278 21.16 35.2281 21.16 35.2284C21.16 35.2287 21.16 35.229 21.16 35.2293C21.16 35.2296 21.16 35.2299 21.16 35.2302C21.16 35.2304 21.16 35.2307 21.16 35.231C21.16 35.2313 21.16 35.2316 21.16 35.2319C21.16 35.2322 21.16 35.2325 21.16 35.2328C21.16 35.2331 21.16 35.2334 21.16 35.2337C21.16 35.234 21.16 35.2343 21.16 35.2346C21.16 35.2349 21.16 35.2352 21.16 35.2355C21.16 35.2359 21.16 35.2362 21.16 35.2365C21.16 35.2368 21.16 35.2371 21.16 35.2374C21.16 35.2377 21.16 35.238 21.16 35.2383C21.16 35.2386 21.16 35.2389 21.16 35.2392C21.16 35.2395 21.16 35.2398 21.16 35.2401C21.16 35.2404 21.16 35.2408 21.16 35.2411C21.16 35.2414 21.16 35.2417 21.16 35.242C21.16 35.2423 21.16 35.2426 21.16 35.2429C21.16 35.2432 21.16 35.2436 21.16 35.2439C21.16 35.2442 21.16 35.2445 21.16 35.2448C21.16 35.2451 21.16 35.2454 21.16 35.2458C21.16 35.2461 21.16 35.2464 21.16 35.2467C21.16 35.247 21.16 35.2473 21.16 35.2477C21.16 35.248 21.16 35.2483 21.16 35.2486C21.16 35.2489 21.16 35.2493 21.16 35.2496C21.16 35.2499 21.16 35.2502 21.16 35.2505C21.16 35.2509 21.16 35.2512 21.16 35.2515C21.16 35.2518 21.16 35.2522 21.16 35.2525C21.16 35.2528 21.16 35.2531 21.16 35.2535C21.16 35.2538 21.16 35.2541 21.16 35.2544C21.16 35.2548 21.16 35.2551 21.16 35.2554C21.16 35.2557 21.16 35.2561 21.16 35.2564C21.16 35.2567 21.16 35.2571 21.16 35.2574C21.16 35.2577 21.16 35.258 21.16 35.2584C21.16 35.2587 21.16 35.259 21.16 35.2594C21.16 35.2597 21.16 35.26 21.16 35.2604C21.16 35.2607 21.16 35.261 21.16 35.2614C21.16 35.2617 21.16 35.262 21.16 35.2624C21.16 35.2627 21.16 35.263 21.16 35.2634C21.16 35.2637 21.16 35.264 21.16 35.2644C21.16 35.2647 21.16 35.2651 21.16 35.2654C21.16 35.2657 21.16 35.2661 21.16 35.2664C21.16 35.2668 21.16 35.2671 21.16 35.2674C21.16 35.2678 21.16 35.2681 21.16 35.2685C21.16 35.2688 21.16 35.2691 21.16 35.2695C21.16 35.2698 21.16 35.2702 21.16 35.2705C21.16 35.2709 21.16 35.2712 21.16 35.2716C21.16 35.2719 21.16 35.2723 21.16 35.2726C21.16 35.2729 21.16 35.2733 21.16 35.2736C21.16 35.274 21.16 35.2743 21.16 35.2747C21.16 35.275 21.16 35.2754 21.16 35.2757C21.16 35.2761 21.16 35.2764 21.16 35.2768C21.16 35.2771 21.16 35.2775 21.16 35.2778C21.16 35.2782 21.16 35.2785 21.16 35.2789C21.16 35.2793 21.16 35.2796 21.16 35.28C21.16 35.2803 21.16 35.2807 21.16 35.281C21.16 35.2814 21.16 35.2817 21.16 35.2821C21.16 35.2825 21.16 35.2828 21.16 35.2832C21.16 35.2835 21.16 35.2839 21.16 35.2843C21.16 35.2846 21.16 35.285 21.16 35.2853C21.16 35.2857 21.16 35.2861 21.16 35.2864C21.16 35.2868 21.16 35.2871 21.16 35.2875C21.16 35.2879 21.16 35.2882 21.16 35.2886C21.16 35.289 21.16 35.2893 21.16 35.2897C21.16 35.2901 21.16 35.2904 21.16 35.2908C21.16 35.2911 21.16 35.2915 21.16 35.2919C21.16 35.2922 21.16 35.2926 21.16 35.293C21.16 35.2934 21.16 35.2937 21.16 35.2941C21.16 35.2945 21.16 35.2948 21.16 35.2952C21.16 35.2956 21.16 35.2959 21.16 35.2963C21.16 35.2967 21.16 35.2971 21.16 35.2974C21.16 35.2978 21.16 35.2982 21.16 35.2986C21.16 35.2989 21.16 35.2993 21.16 35.2997C21.16 35.3001 21.16 35.3004 21.16 35.3008C21.16 35.3012 21.16 35.3016 21.16 35.3019C21.16 35.3023 21.16 35.3027 21.16 35.3031C21.16 35.3035 21.16 35.3038 21.16 35.3042C21.16 35.3046 21.16 35.305 21.16 35.3054C21.16 35.3057 21.16 35.3061 21.16 35.3065C21.16 35.3069 21.16 35.3073 21.16 35.3076C21.16 35.308 21.16 35.3084 21.16 35.3088C21.16 35.3092 21.16 35.3096 21.16 35.31C21.16 35.3103 21.16 35.3107 21.16 35.3111C21.16 35.3115 21.16 35.3119 21.16 35.3123C21.16 35.3127 21.16 35.313 21.16 35.3134C21.16 35.3138 21.16 35.3142 21.16 35.3146C21.16 35.315 21.16 35.3154 21.16 35.3158C21.16 35.3162 21.16 35.3166 21.16 35.317C21.16 35.3173 21.16 35.3177 21.16 35.3181C21.16 35.3185 21.16 35.3189 21.16 35.3193C21.16 35.3197 21.16 35.3201 21.16 35.3205C21.16 35.3209 21.16 35.3213 21.16 35.3217C21.16 35.3221 21.16 35.3225 21.16 35.3229C21.16 35.3233 21.16 35.3237 21.16 35.3241C21.16 35.3245 21.16 35.3249 21.16 35.3253C21.16 35.3257 21.16 35.3261 21.16 35.3265C21.16 35.3269 21.16 35.3273 21.16 35.3277C21.16 35.3281 21.16 35.3285 21.16 35.3289C21.16 35.3293 21.16 35.3297 21.16 35.3301C21.16 35.3305 21.16 35.3309 21.16 35.3313C21.16 35.3317 21.16 35.3321 21.16 35.3326C21.16 35.333 21.16 35.3334 21.16 35.3338C21.16 35.3342 21.16 35.3346 21.16 35.335C21.16 35.3354 21.16 35.3358 21.16 35.3362C21.16 35.3367 21.16 35.3371 21.16 35.3375C21.16 35.3379 21.16 35.3383 21.16 35.3387C21.16 35.3391 21.16 35.3395 21.16 35.34C21.16 35.3404 21.16 35.3408 21.16 35.3412C21.16 35.3416 21.16 35.342 21.16 35.3424C21.16 35.3429 21.16 35.3433 21.16 35.3437C21.16 35.3441 21.16 35.3445 21.16 35.345C21.16 35.3454 21.16 35.3458 21.16 35.3462C21.16 35.3466 21.16 35.347 21.16 35.3475C21.16 35.3479 21.16 35.3483 21.16 35.3487C21.16 35.3492 21.16 35.3496 21.16 35.35C21.16 35.3504 21.16 35.3509 21.16 35.3513C21.16 35.3517 21.16 35.3521 21.16 35.3526C21.16 35.353 21.16 35.3534 21.16 35.3538C21.16 35.3543 21.16 35.3547 21.16 35.3551C21.16 35.3555 21.16 35.356 21.16 35.3564C21.16 35.3568 21.16 35.3573 21.16 35.3577C21.16 35.3581 21.16 35.3585 21.16 35.359C21.16 35.3594 21.16 35.3598 21.16 35.3603C21.16 35.3607 21.16 35.3611 21.16 35.3616C21.16 35.362 21.16 35.3624 21.16 35.3629C21.16 35.3633 21.16 35.3638 21.16 35.3642C21.16 35.3646 21.16 35.3651 21.16 35.3655C21.16 35.3659 21.16 35.3664 21.16 35.3668C21.16 35.3672 21.16 35.3677 21.16 35.3681C21.16 35.3686 21.16 35.369 21.16 35.3694C21.16 35.3699 21.16 35.3703 21.16 35.3708C21.16 35.3712 21.16 35.3717 21.16 35.3721C21.16 35.3725 21.16 35.373 21.16 35.3734C21.16 35.3739 21.16 35.3743 21.16 35.3748C21.16 35.3752 21.16 35.3756 21.16 35.3761C21.16 35.3765 21.16 35.377 21.16 35.3774C21.16 35.3779 21.16 35.3783 21.16 35.3788C21.16 35.3792 21.16 35.3797 21.16 35.3801C21.16 35.3806 21.16 35.381 21.16 35.3815C21.16 35.3819 21.16 35.3824 21.16 35.3828C21.16 35.3833 21.16 35.3837 21.16 35.3842C21.16 35.3846 21.16 35.3851 21.16 35.3856C21.16 35.386 21.16 35.3865 21.16 35.3869C21.16 35.3874 21.16 35.3878 21.16 35.3883C21.16 35.3887 21.16 35.3892 21.16 35.3897C21.16 35.3901 21.16 35.3906 21.16 35.391C21.16 35.3915 21.16 35.392 21.16 35.3924C21.16 35.3929 21.16 35.3933 21.16 35.3938C21.16 35.3943 21.16 35.3947 21.16 35.3952C21.16 35.3956 21.16 35.3961 21.16 35.3966C21.16 35.397 21.16 35.3975 21.16 35.398C21.16 35.3984 21.16 35.3989 21.16 35.3994C21.16 35.3998 21.16 35.4003 21.16 35.4008C21.16 35.4012 21.16 35.4017 21.16 35.4022C21.16 35.4026 21.16 35.4031 21.16 35.4036C21.16 35.404 21.16 35.4045 21.16 35.405C21.16 35.4054 21.16 35.4059 21.16 35.4064C21.16 35.4069 21.16 35.4073 21.16 35.4078C21.16 35.4083 21.16 35.4087 21.16 35.4092C21.16 35.4097 21.16 35.4102 21.16 35.4106C21.16 35.4111 21.16 35.4116 21.16 35.4121C21.16 35.4125 21.16 35.413 21.16 35.4135C21.16 35.414 21.16 35.4145 21.16 35.4149C21.16 35.4154 21.16 35.4159 21.16 35.4164C21.16 35.4169 21.16 35.4173 21.16 35.4178C21.16 35.4183 21.16 35.4188 21.16 35.4193C21.16 35.4197 21.16 35.4202 21.16 35.4207C21.16 35.4212 21.16 35.4217 21.16 35.4221C21.16 35.4226 21.16 35.4231 21.16 35.4236C21.16 35.4241 21.16 35.4246 21.16 35.4251C21.16 35.4255 21.16 35.426 21.16 35.4265C21.16 35.427 21.16 35.4275 21.16 35.428C21.16 35.4285 21.16 35.429 21.16 35.4295C21.16 35.4299 21.16 35.4304 21.16 35.4309C21.16 35.4314 21.16 35.4319 21.16 35.4324C21.16 35.4329 21.16 35.4334 21.16 35.4339C21.16 35.4344 21.16 35.4349 21.16 35.4354C21.16 35.4359 21.16 35.4364 21.16 35.4368C21.16 35.4373 21.16 35.4378 21.16 35.4383C21.16 35.4388 21.16 35.4393 21.16 35.4398C21.16 35.4403 21.16 35.4408 21.16 35.4413C21.16 35.4418 21.16 35.4423 21.16 35.4428C21.16 35.4433 21.16 35.4438 21.16 35.4443C21.16 35.4448 21.16 35.4453 21.16 35.4458C21.16 35.4463 21.16 35.4468 21.16 35.4473C21.16 35.4478 21.16 35.4483 21.16 35.4488C21.16 35.4494 21.16 35.4499 21.16 35.4504C21.16 35.4509 21.16 35.4514 21.16 35.4519C21.16 35.4524 21.16 35.4529 21.16 35.4534C21.16 35.4539 21.16 35.4544 21.16 35.4549C21.16 35.4554 21.16 35.456 21.16 35.4565C21.16 35.457 21.16 35.4575 21.16 35.458C21.16 35.4585 21.16 35.459 21.16 35.4595C21.16 35.46 21.16 35.4606 21.16 35.4611C21.16 35.4616 21.16 35.4621 21.16 35.4626C21.16 35.4631 21.16 35.4636 21.16 35.4642C21.16 35.4647 21.16 35.4652 21.16 35.4657C21.16 35.4662 21.16 35.4667 21.16 35.4673C21.16 35.4678 21.16 35.4683 21.16 35.4688C21.16 35.4693 21.16 35.4699 21.16 35.4704C21.16 35.4709 21.16 35.4714 21.16 35.4719C21.16 35.4725 21.16 35.473 21.16 35.4735C21.16 35.474 21.16 35.4746 21.16 35.4751C21.16 35.4756 21.16 35.4761 21.16 35.4767C21.16 35.4772 21.16 35.4777 21.16 35.4782C21.16 35.4788 21.16 35.4793 21.16 35.4798C21.16 35.4803 21.16 35.4809 21.16 35.4814C21.16 35.4819 21.16 35.4825 21.16 35.483C21.16 35.4835 21.16 35.484 21.16 35.4846C21.16 35.4851 21.16 35.4856 21.16 35.4862C21.16 35.4867 21.16 35.4872 21.16 35.4878C21.16 35.4883 21.16 35.4888 21.16 35.4894C21.16 35.4899 21.16 35.4904 21.16 35.491C21.16 35.4915 21.16 35.4921 21.16 35.4926C21.16 35.4931 21.16 35.4937 21.16 35.4942C21.16 35.4947 21.16 35.4953 21.16 35.4958C21.16 35.4964 21.16 35.4969 21.16 35.4974C21.16 35.498 21.16 35.4985 21.16 35.4991C21.16 35.4996 21.16 35.5001 21.16 35.5007C21.16 35.5012 21.16 35.5018 21.16 35.5023C21.16 35.5029 21.16 35.5034 21.16 35.5039C21.16 35.5045 21.16 35.505 21.16 35.5056C21.16 35.5061 21.16 35.5067 21.16 35.5072C21.16 35.5078 21.16 35.5083 21.16 35.5089C21.16 35.5094 21.16 35.51 21.16 35.5105C21.16 35.5111 21.16 35.5116 21.16 35.5122C21.16 35.5127 21.16 35.5133 21.16 35.5138C21.16 35.5144 21.16 35.5149 21.16 35.5155C21.16 35.516 21.16 35.5166 21.16 35.5171C21.16 35.5177 21.16 35.5182 21.16 35.5188C21.16 35.5193 21.16 35.5199 21.16 35.5205C21.16 35.521 21.16 35.5216 21.16 35.5221C21.16 35.5227 21.16 35.5232 21.16 35.5238C21.16 35.5244 21.16 35.5249 21.16 35.5255C21.16 35.526 21.16 35.5266 21.16 35.5272C21.16 35.5277 21.16 35.5283 21.16 35.5288C21.16 35.5294 21.16 35.53 21.16 35.5305C21.16 35.5311 21.16 35.5317 21.16 35.5322C21.16 35.5328 21.16 35.5333 21.16 35.5339C21.16 35.5345 21.16 35.535 21.16 35.5356C21.16 35.5362 21.16 35.5367 21.16 35.5373C21.16 35.5379 21.16 35.5384 21.16 35.539C21.16 35.5396 21.16 35.5402 21.16 35.5407C21.16 35.5413 21.16 35.5419 21.16 35.5424C21.16 35.543 21.16 35.5436 21.16 35.5442C21.16 35.5447 21.16 35.5453 21.16 35.5459C21.16 35.5464 21.16 35.547 21.16 35.5476C21.16 35.5482 21.16 35.5487 21.16 35.5493C21.16 35.5499 21.16 35.5505 21.16 35.551C21.16 35.5516 21.16 35.5522 21.16 35.5528C21.16 35.5534 21.16 35.5539 21.16 35.5545C21.16 35.5551 21.16 35.5557 21.16 35.5563C21.16 35.5568 21.16 35.5574 21.16 35.558C21.16 35.5586 21.16 35.5592 21.16 35.5597C21.16 35.5603 21.16 35.5609 21.16 35.5615C21.16 35.5621 21.16 35.5627 21.16 35.5632C21.16 35.5638 21.16 35.5644 21.16 35.565H21.96H22.76C22.76 35.5644 22.76 35.5638 22.76 35.5632C22.76 35.5627 22.76 35.5621 22.76 35.5615C22.76 35.5609 22.76 35.5603 22.76 35.5597C22.76 35.5592 22.76 35.5586 22.76 35.558C22.76 35.5574 22.76 35.5568 22.76 35.5563C22.76 35.5557 22.76 35.5551 22.76 35.5545C22.76 35.5539 22.76 35.5534 22.76 35.5528C22.76 35.5522 22.76 35.5516 22.76 35.551C22.76 35.5505 22.76 35.5499 22.76 35.5493C22.76 35.5487 22.76 35.5482 22.76 35.5476C22.76 35.547 22.76 35.5464 22.76 35.5459C22.76 35.5453 22.76 35.5447 22.76 35.5442C22.76 35.5436 22.76 35.543 22.76 35.5424C22.76 35.5419 22.76 35.5413 22.76 35.5407C22.76 35.5402 22.76 35.5396 22.76 35.539C22.76 35.5384 22.76 35.5379 22.76 35.5373C22.76 35.5367 22.76 35.5362 22.76 35.5356C22.76 35.535 22.76 35.5345 22.76 35.5339C22.76 35.5333 22.76 35.5328 22.76 35.5322C22.76 35.5317 22.76 35.5311 22.76 35.5305C22.76 35.53 22.76 35.5294 22.76 35.5288C22.76 35.5283 22.76 35.5277 22.76 35.5272C22.76 35.5266 22.76 35.526 22.76 35.5255C22.76 35.5249 22.76 35.5244 22.76 35.5238C22.76 35.5232 22.76 35.5227 22.76 35.5221C22.76 35.5216 22.76 35.521 22.76 35.5205C22.76 35.5199 22.76 35.5193 22.76 35.5188C22.76 35.5182 22.76 35.5177 22.76 35.5171C22.76 35.5166 22.76 35.516 22.76 35.5155C22.76 35.5149 22.76 35.5144 22.76 35.5138C22.76 35.5133 22.76 35.5127 22.76 35.5122C22.76 35.5116 22.76 35.5111 22.76 35.5105C22.76 35.51 22.76 35.5094 22.76 35.5089C22.76 35.5083 22.76 35.5078 22.76 35.5072C22.76 35.5067 22.76 35.5061 22.76 35.5056C22.76 35.505 22.76 35.5045 22.76 35.5039C22.76 35.5034 22.76 35.5029 22.76 35.5023C22.76 35.5018 22.76 35.5012 22.76 35.5007C22.76 35.5001 22.76 35.4996 22.76 35.4991C22.76 35.4985 22.76 35.498 22.76 35.4974C22.76 35.4969 22.76 35.4964 22.76 35.4958C22.76 35.4953 22.76 35.4947 22.76 35.4942C22.76 35.4937 22.76 35.4931 22.76 35.4926C22.76 35.4921 22.76 35.4915 22.76 35.491C22.76 35.4904 22.76 35.4899 22.76 35.4894C22.76 35.4888 22.76 35.4883 22.76 35.4878C22.76 35.4872 22.76 35.4867 22.76 35.4862C22.76 35.4856 22.76 35.4851 22.76 35.4846C22.76 35.484 22.76 35.4835 22.76 35.483C22.76 35.4825 22.76 35.4819 22.76 35.4814C22.76 35.4809 22.76 35.4803 22.76 35.4798C22.76 35.4793 22.76 35.4788 22.76 35.4782C22.76 35.4777 22.76 35.4772 22.76 35.4767C22.76 35.4761 22.76 35.4756 22.76 35.4751C22.76 35.4746 22.76 35.474 22.76 35.4735C22.76 35.473 22.76 35.4725 22.76 35.4719C22.76 35.4714 22.76 35.4709 22.76 35.4704C22.76 35.4699 22.76 35.4693 22.76 35.4688C22.76 35.4683 22.76 35.4678 22.76 35.4673C22.76 35.4667 22.76 35.4662 22.76 35.4657C22.76 35.4652 22.76 35.4647 22.76 35.4642C22.76 35.4636 22.76 35.4631 22.76 35.4626C22.76 35.4621 22.76 35.4616 22.76 35.4611C22.76 35.4606 22.76 35.46 22.76 35.4595C22.76 35.459 22.76 35.4585 22.76 35.458C22.76 35.4575 22.76 35.457 22.76 35.4565C22.76 35.456 22.76 35.4554 22.76 35.4549C22.76 35.4544 22.76 35.4539 22.76 35.4534C22.76 35.4529 22.76 35.4524 22.76 35.4519C22.76 35.4514 22.76 35.4509 22.76 35.4504C22.76 35.4499 22.76 35.4494 22.76 35.4488C22.76 35.4483 22.76 35.4478 22.76 35.4473C22.76 35.4468 22.76 35.4463 22.76 35.4458C22.76 35.4453 22.76 35.4448 22.76 35.4443C22.76 35.4438 22.76 35.4433 22.76 35.4428C22.76 35.4423 22.76 35.4418 22.76 35.4413C22.76 35.4408 22.76 35.4403 22.76 35.4398C22.76 35.4393 22.76 35.4388 22.76 35.4383C22.76 35.4378 22.76 35.4373 22.76 35.4368C22.76 35.4364 22.76 35.4359 22.76 35.4354C22.76 35.4349 22.76 35.4344 22.76 35.4339C22.76 35.4334 22.76 35.4329 22.76 35.4324C22.76 35.4319 22.76 35.4314 22.76 35.4309C22.76 35.4304 22.76 35.4299 22.76 35.4295C22.76 35.429 22.76 35.4285 22.76 35.428C22.76 35.4275 22.76 35.427 22.76 35.4265C22.76 35.426 22.76 35.4255 22.76 35.4251C22.76 35.4246 22.76 35.4241 22.76 35.4236C22.76 35.4231 22.76 35.4226 22.76 35.4221C22.76 35.4217 22.76 35.4212 22.76 35.4207C22.76 35.4202 22.76 35.4197 22.76 35.4193C22.76 35.4188 22.76 35.4183 22.76 35.4178C22.76 35.4173 22.76 35.4169 22.76 35.4164C22.76 35.4159 22.76 35.4154 22.76 35.4149C22.76 35.4145 22.76 35.414 22.76 35.4135C22.76 35.413 22.76 35.4125 22.76 35.4121C22.76 35.4116 22.76 35.4111 22.76 35.4106C22.76 35.4102 22.76 35.4097 22.76 35.4092C22.76 35.4087 22.76 35.4083 22.76 35.4078C22.76 35.4073 22.76 35.4069 22.76 35.4064C22.76 35.4059 22.76 35.4054 22.76 35.405C22.76 35.4045 22.76 35.404 22.76 35.4036C22.76 35.4031 22.76 35.4026 22.76 35.4022C22.76 35.4017 22.76 35.4012 22.76 35.4008C22.76 35.4003 22.76 35.3998 22.76 35.3994C22.76 35.3989 22.76 35.3984 22.76 35.398C22.76 35.3975 22.76 35.397 22.76 35.3966C22.76 35.3961 22.76 35.3956 22.76 35.3952C22.76 35.3947 22.76 35.3943 22.76 35.3938C22.76 35.3933 22.76 35.3929 22.76 35.3924C22.76 35.392 22.76 35.3915 22.76 35.391C22.76 35.3906 22.76 35.3901 22.76 35.3897C22.76 35.3892 22.76 35.3887 22.76 35.3883C22.76 35.3878 22.76 35.3874 22.76 35.3869C22.76 35.3865 22.76 35.386 22.76 35.3856C22.76 35.3851 22.76 35.3846 22.76 35.3842C22.76 35.3837 22.76 35.3833 22.76 35.3828C22.76 35.3824 22.76 35.3819 22.76 35.3815C22.76 35.381 22.76 35.3806 22.76 35.3801C22.76 35.3797 22.76 35.3792 22.76 35.3788C22.76 35.3783 22.76 35.3779 22.76 35.3774C22.76 35.377 22.76 35.3765 22.76 35.3761C22.76 35.3756 22.76 35.3752 22.76 35.3748C22.76 35.3743 22.76 35.3739 22.76 35.3734C22.76 35.373 22.76 35.3725 22.76 35.3721C22.76 35.3717 22.76 35.3712 22.76 35.3708C22.76 35.3703 22.76 35.3699 22.76 35.3694C22.76 35.369 22.76 35.3686 22.76 35.3681C22.76 35.3677 22.76 35.3672 22.76 35.3668C22.76 35.3664 22.76 35.3659 22.76 35.3655C22.76 35.3651 22.76 35.3646 22.76 35.3642C22.76 35.3638 22.76 35.3633 22.76 35.3629C22.76 35.3624 22.76 35.362 22.76 35.3616C22.76 35.3611 22.76 35.3607 22.76 35.3603C22.76 35.3598 22.76 35.3594 22.76 35.359C22.76 35.3585 22.76 35.3581 22.76 35.3577C22.76 35.3573 22.76 35.3568 22.76 35.3564C22.76 35.356 22.76 35.3555 22.76 35.3551C22.76 35.3547 22.76 35.3543 22.76 35.3538C22.76 35.3534 22.76 35.353 22.76 35.3526C22.76 35.3521 22.76 35.3517 22.76 35.3513C22.76 35.3509 22.76 35.3504 22.76 35.35C22.76 35.3496 22.76 35.3492 22.76 35.3487C22.76 35.3483 22.76 35.3479 22.76 35.3475C22.76 35.347 22.76 35.3466 22.76 35.3462C22.76 35.3458 22.76 35.3454 22.76 35.345C22.76 35.3445 22.76 35.3441 22.76 35.3437C22.76 35.3433 22.76 35.3429 22.76 35.3424C22.76 35.342 22.76 35.3416 22.76 35.3412C22.76 35.3408 22.76 35.3404 22.76 35.34C22.76 35.3395 22.76 35.3391 22.76 35.3387C22.76 35.3383 22.76 35.3379 22.76 35.3375C22.76 35.3371 22.76 35.3367 22.76 35.3362C22.76 35.3358 22.76 35.3354 22.76 35.335C22.76 35.3346 22.76 35.3342 22.76 35.3338C22.76 35.3334 22.76 35.333 22.76 35.3326C22.76 35.3321 22.76 35.3317 22.76 35.3313C22.76 35.3309 22.76 35.3305 22.76 35.3301C22.76 35.3297 22.76 35.3293 22.76 35.3289C22.76 35.3285 22.76 35.3281 22.76 35.3277C22.76 35.3273 22.76 35.3269 22.76 35.3265C22.76 35.3261 22.76 35.3257 22.76 35.3253C22.76 35.3249 22.76 35.3245 22.76 35.3241C22.76 35.3237 22.76 35.3233 22.76 35.3229C22.76 35.3225 22.76 35.3221 22.76 35.3217C22.76 35.3213 22.76 35.3209 22.76 35.3205C22.76 35.3201 22.76 35.3197 22.76 35.3193C22.76 35.3189 22.76 35.3185 22.76 35.3181C22.76 35.3177 22.76 35.3173 22.76 35.317C22.76 35.3166 22.76 35.3162 22.76 35.3158C22.76 35.3154 22.76 35.315 22.76 35.3146C22.76 35.3142 22.76 35.3138 22.76 35.3134C22.76 35.313 22.76 35.3127 22.76 35.3123C22.76 35.3119 22.76 35.3115 22.76 35.3111C22.76 35.3107 22.76 35.3103 22.76 35.31C22.76 35.3096 22.76 35.3092 22.76 35.3088C22.76 35.3084 22.76 35.308 22.76 35.3076C22.76 35.3073 22.76 35.3069 22.76 35.3065C22.76 35.3061 22.76 35.3057 22.76 35.3054C22.76 35.305 22.76 35.3046 22.76 35.3042C22.76 35.3038 22.76 35.3035 22.76 35.3031C22.76 35.3027 22.76 35.3023 22.76 35.3019C22.76 35.3016 22.76 35.3012 22.76 35.3008C22.76 35.3004 22.76 35.3001 22.76 35.2997C22.76 35.2993 22.76 35.2989 22.76 35.2986C22.76 35.2982 22.76 35.2978 22.76 35.2974C22.76 35.2971 22.76 35.2967 22.76 35.2963C22.76 35.2959 22.76 35.2956 22.76 35.2952C22.76 35.2948 22.76 35.2945 22.76 35.2941C22.76 35.2937 22.76 35.2934 22.76 35.293C22.76 35.2926 22.76 35.2922 22.76 35.2919C22.76 35.2915 22.76 35.2911 22.76 35.2908C22.76 35.2904 22.76 35.2901 22.76 35.2897C22.76 35.2893 22.76 35.289 22.76 35.2886C22.76 35.2882 22.76 35.2879 22.76 35.2875C22.76 35.2871 22.76 35.2868 22.76 35.2864C22.76 35.2861 22.76 35.2857 22.76 35.2853C22.76 35.285 22.76 35.2846 22.76 35.2843C22.76 35.2839 22.76 35.2835 22.76 35.2832C22.76 35.2828 22.76 35.2825 22.76 35.2821C22.76 35.2817 22.76 35.2814 22.76 35.281C22.76 35.2807 22.76 35.2803 22.76 35.28C22.76 35.2796 22.76 35.2793 22.76 35.2789C22.76 35.2785 22.76 35.2782 22.76 35.2778C22.76 35.2775 22.76 35.2771 22.76 35.2768C22.76 35.2764 22.76 35.2761 22.76 35.2757C22.76 35.2754 22.76 35.275 22.76 35.2747C22.76 35.2743 22.76 35.274 22.76 35.2736C22.76 35.2733 22.76 35.2729 22.76 35.2726C22.76 35.2723 22.76 35.2719 22.76 35.2716C22.76 35.2712 22.76 35.2709 22.76 35.2705C22.76 35.2702 22.76 35.2698 22.76 35.2695C22.76 35.2691 22.76 35.2688 22.76 35.2685C22.76 35.2681 22.76 35.2678 22.76 35.2674C22.76 35.2671 22.76 35.2668 22.76 35.2664C22.76 35.2661 22.76 35.2657 22.76 35.2654C22.76 35.2651 22.76 35.2647 22.76 35.2644C22.76 35.264 22.76 35.2637 22.76 35.2634C22.76 35.263 22.76 35.2627 22.76 35.2624C22.76 35.262 22.76 35.2617 22.76 35.2614C22.76 35.261 22.76 35.2607 22.76 35.2604C22.76 35.26 22.76 35.2597 22.76 35.2594C22.76 35.259 22.76 35.2587 22.76 35.2584C22.76 35.258 22.76 35.2577 22.76 35.2574C22.76 35.2571 22.76 35.2567 22.76 35.2564C22.76 35.2561 22.76 35.2557 22.76 35.2554C22.76 35.2551 22.76 35.2548 22.76 35.2544C22.76 35.2541 22.76 35.2538 22.76 35.2535C22.76 35.2531 22.76 35.2528 22.76 35.2525C22.76 35.2522 22.76 35.2518 22.76 35.2515C22.76 35.2512 22.76 35.2509 22.76 35.2505C22.76 35.2502 22.76 35.2499 22.76 35.2496C22.76 35.2493 22.76 35.2489 22.76 35.2486C22.76 35.2483 22.76 35.248 22.76 35.2477C22.76 35.2473 22.76 35.247 22.76 35.2467C22.76 35.2464 22.76 35.2461 22.76 35.2458C22.76 35.2454 22.76 35.2451 22.76 35.2448C22.76 35.2445 22.76 35.2442 22.76 35.2439C22.76 35.2436 22.76 35.2432 22.76 35.2429C22.76 35.2426 22.76 35.2423 22.76 35.242C22.76 35.2417 22.76 35.2414 22.76 35.2411C22.76 35.2408 22.76 35.2404 22.76 35.2401C22.76 35.2398 22.76 35.2395 22.76 35.2392C22.76 35.2389 22.76 35.2386 22.76 35.2383C22.76 35.238 22.76 35.2377 22.76 35.2374C22.76 35.2371 22.76 35.2368 22.76 35.2365C22.76 35.2362 22.76 35.2359 22.76 35.2355C22.76 35.2352 22.76 35.2349 22.76 35.2346C22.76 35.2343 22.76 35.234 22.76 35.2337C22.76 35.2334 22.76 35.2331 22.76 35.2328C22.76 35.2325 22.76 35.2322 22.76 35.2319C22.76 35.2316 22.76 35.2313 22.76 35.231C22.76 35.2307 22.76 35.2304 22.76 35.2302C22.76 35.2299 22.76 35.2296 22.76 35.2293C22.76 35.229 22.76 35.2287 22.76 35.2284C22.76 35.2281 22.76 35.2278 22.76 35.2275C22.76 35.2272 22.76 35.2269 22.76 35.2266C22.76 35.2263 22.76 35.226 22.76 35.2257C22.76 35.2255 22.76 35.2252 22.76 35.2249C22.76 35.2246 22.76 35.2243 22.76 35.224C22.76 35.2237 22.76 35.2234 22.76 35.2231C22.76 35.2229 22.76 35.2226 22.76 35.2223C22.76 35.222 22.76 35.2217 22.76 35.2214C22.76 35.2211 22.76 35.2209 22.76 35.2206C22.76 35.2203 22.76 35.22 22.76 35.2197C22.76 35.2194 22.76 35.2192 22.76 35.2189C22.76 35.2186 22.76 35.2183 22.76 35.218C22.76 35.2178 22.76 35.2175 22.76 35.2172C22.76 35.2169 22.76 35.2166 22.76 35.2164C22.76 35.2161 22.76 35.2158 22.76 35.2155C22.76 35.2153 22.76 35.215 22.76 35.2147C22.76 35.2144 22.76 35.2141 22.76 35.2139C22.76 35.2136 22.76 35.2133 22.76 35.2131C22.76 35.2128 22.76 35.2125 22.76 35.2122C22.76 35.212 22.76 35.2117 22.76 35.2114C22.76 35.2111 22.76 35.2109 22.76 35.2106C22.76 35.2103 22.76 35.2101 22.76 35.2098C22.76 35.2095 22.76 35.2093 22.76 35.209C22.76 35.2087 22.76 35.2085 22.76 35.2082C22.76 35.2079 22.76 35.2077 22.76 35.2074C22.76 35.2071 22.76 35.2069 22.76 35.2066C22.76 35.2063 22.76 35.2061 22.76 35.2058C22.76 35.2055 22.76 35.2053 22.76 35.205C22.76 35.2048 22.76 35.2045 22.76 35.2042C22.76 35.204 22.76 35.2037 22.76 35.2035C22.76 35.2032 22.76 35.2029 22.76 35.2027C22.76 35.2024 22.76 35.2022 22.76 35.2019C22.76 35.2016 22.76 35.2014 22.76 35.2011C22.76 35.2009 22.76 35.2006 22.76 35.2004C22.76 35.2001 22.76 35.1999 22.76 35.1996C22.76 35.1993 22.76 35.1991 22.76 35.1988C22.76 35.1986 22.76 35.1983 22.76 35.1981C22.76 35.1978 22.76 35.1976 22.76 35.1973C22.76 35.1971 22.76 35.1968 22.76 35.1966C22.76 35.1963 22.76 35.1961 22.76 35.1958C22.76 35.1956 22.76 35.1953 22.76 35.1951C22.76 35.1948 22.76 35.1946 22.76 35.1944C22.76 35.1941 22.76 35.1939 22.76 35.1936C22.76 35.1934 22.76 35.1931 22.76 35.1929C22.76 35.1926 22.76 35.1924 22.76 35.1922C22.76 35.1919 22.76 35.1917 22.76 35.1914C22.76 35.1912 22.76 35.1909 22.76 35.1907C22.76 35.1905 22.76 35.1902 22.76 35.19C22.76 35.1897 22.76 35.1895 22.76 35.1893C22.76 35.189 22.76 35.1888 22.76 35.1886C22.76 35.1883 22.76 35.1881 22.76 35.1878C22.76 35.1876 22.76 35.1874 22.76 35.1871C22.76 35.1869 22.76 35.1867 22.76 35.1864C22.76 35.1862 22.76 35.186 22.76 35.1857C22.76 35.1855 22.76 35.1853 22.76 35.185C22.76 35.1848 22.76 35.1846 22.76 35.1844C22.76 35.1841 22.76 35.1839 22.76 35.1837C22.76 35.1834 22.76 35.1832 22.76 35.183C22.76 35.1828 22.76 35.1825 22.76 35.1823C22.76 35.1821 22.76 35.1818 22.76 35.1816C22.76 35.1814 22.76 35.1812 22.76 35.1809C22.76 35.1807 22.76 35.1805 22.76 35.1803C22.76 35.18 22.76 35.1798 22.76 35.1796C22.76 35.1794 22.76 35.1792 22.76 35.1789C22.76 35.1787 22.76 35.1785 22.76 35.1783C22.76 35.1781 22.76 35.1778 22.76 35.1776C22.76 35.1774 22.76 35.1772 22.76 35.177C22.76 35.1768 22.76 35.1765 22.76 35.1763C22.76 35.1761 22.76 35.1759 22.76 35.1757C22.76 35.1755 22.76 35.1752 22.76 35.175C22.76 35.1748 22.76 35.1746 22.76 35.1744C22.76 35.1742 22.76 35.174 22.76 35.1738C22.76 35.1735 22.76 35.1733 22.76 35.1731C22.76 35.1729 22.76 35.1727 22.76 35.1725C22.76 35.1723 22.76 35.1721 22.76 35.1719C22.76 35.1717 22.76 35.1714 22.76 35.1712C22.76 35.171 22.76 35.1708 22.76 35.1706C22.76 35.1704 22.76 35.1702 22.76 35.17C22.76 35.1698 22.76 35.1696 22.76 35.1694C22.76 35.1692 22.76 35.169 22.76 35.1688C22.76 35.1686 22.76 35.1684 22.76 35.1682C22.76 35.168 22.76 35.1678 22.76 35.1676C22.76 35.1674 22.76 35.1672 22.76 35.167C22.76 35.1668 22.76 35.1666 22.76 35.1664C22.76 35.1662 22.76 35.166 22.76 35.1658C22.76 35.1656 22.76 35.1654 22.76 35.1652C22.76 35.165 22.76 35.1648 22.76 35.1646C22.76 35.1644 22.76 35.1642 22.76 35.164C22.76 35.1638 22.76 35.1636 22.76 35.1634C22.76 35.1633 22.76 35.1631 22.76 35.1629C22.76 35.1627 22.76 35.1625 22.76 35.1623C22.76 35.1621 22.76 35.1619 22.76 35.1617C22.76 35.1615 22.76 35.1614 22.76 35.1612C22.76 35.161 22.76 35.1608 22.76 35.1606C22.76 35.1604 22.76 35.1602 22.76 35.16C22.76 35.1599 22.76 35.1597 22.76 35.1595C22.76 35.1593 22.76 35.1591 22.76 35.1589C22.76 35.1588 22.76 35.1586 22.76 35.1584C22.76 35.1582 22.76 35.158 22.76 35.1579C22.76 35.1577 22.76 35.1575 22.76 35.1573C22.76 35.1571 22.76 35.157 22.76 35.1568C22.76 35.1566 22.76 35.1564 22.76 35.1562C22.76 35.1561 22.76 35.1559 22.76 35.1557C22.76 35.1555 22.76 35.1554 22.76 35.1552C22.76 35.155 22.76 35.1548 22.76 35.1547C22.76 35.1545 22.76 35.1543 22.76 35.1541C22.76 35.154 22.76 35.1538 22.76 35.1536C22.76 35.1535 22.76 35.1533 22.76 35.1531C22.76 35.1529 22.76 35.1528 22.76 35.1526C22.76 35.1524 22.76 35.1523 22.76 35.1521C22.76 35.1519 22.76 35.1518 22.76 35.1516C22.76 35.1514 22.76 35.1513 22.76 35.1511C22.76 35.1509 22.76 35.1508 22.76 35.1506C22.76 35.1504 22.76 35.1503 22.76 35.1501C22.76 35.1499 22.76 35.1498 22.76 35.1496C22.76 35.1495 22.76 35.1493 22.76 35.1491C22.76 35.149 22.76 35.1488 22.76 35.1486C22.76 35.1485 22.76 35.1483 22.76 35.1482C22.76 35.148 22.76 35.1479 22.76 35.1477C22.76 35.1475 22.76 35.1474 22.76 35.1472C22.76 35.1471 22.76 35.1469 22.76 35.1468C22.76 35.1466 22.76 35.1464 22.76 35.1463C22.76 35.1461 22.76 35.146 22.76 35.1458C22.76 35.1457 22.76 35.1455 22.76 35.1454C22.76 35.1452 22.76 35.1451 22.76 35.1449C22.76 35.1448 22.76 35.1446 22.76 35.1445C22.76 35.1443 22.76 35.1442 22.76 35.144C22.76 35.1439 22.76 35.1437 22.76 35.1436C22.76 35.1434 22.76 35.1433 22.76 35.1431C22.76 35.143 22.76 35.1428 22.76 35.1427C22.76 35.1425 22.76 35.1424 22.76 35.1423C22.76 35.1421 22.76 35.142 22.76 35.1418C22.76 35.1417 22.76 35.1415 22.76 35.1414C22.76 35.1413 22.76 35.1411 22.76 35.141C22.76 35.1408 22.76 35.1407 22.76 35.1405C22.76 35.1404 22.76 35.1403 22.76 35.1401C22.76 35.14 22.76 35.1399 22.76 35.1397C22.76 35.1396 22.76 35.1394 22.76 35.1393C22.76 35.1392 22.76 35.139 22.76 35.1389C22.76 35.1388 22.76 35.1386 22.76 35.1385C22.76 35.1384 22.76 35.1382 22.76 35.1381C22.76 35.138 22.76 35.1378 22.76 35.1377C22.76 35.1376 22.76 35.1374 22.76 35.1373C22.76 35.1372 22.76 35.137 22.76 35.1369C22.76 35.1368 22.76 35.1367 22.76 35.1365C22.76 35.1364 22.76 35.1363 22.76 35.1362C22.76 35.136 22.76 35.1359 22.76 35.1358C22.76 35.1356 22.76 35.1355 22.76 35.1354C22.76 35.1353 22.76 35.1351 22.76 35.135C22.76 35.1349 22.76 35.1348 22.76 35.1347C22.76 35.1345 22.76 35.1344 22.76 35.1343C22.76 35.1342 22.76 35.134 22.76 35.1339C22.76 35.1338 22.76 35.1337 22.76 35.1336C22.76 35.1334 22.76 35.1333 22.76 35.1332C22.76 35.1331 22.76 35.133 22.76 35.1329C22.76 35.1327 22.76 35.1326 22.76 35.1325C22.76 35.1324 22.76 35.1323 22.76 35.1322C22.76 35.132 22.76 35.1319 22.76 35.1318C22.76 35.1317 22.76 35.1316 22.76 35.1315C22.76 35.1314 22.76 35.1313 22.76 35.1311C22.76 35.131 22.76 35.1309 22.76 35.1308C22.76 35.1307 22.76 35.1306 22.76 35.1305C22.76 35.1304 22.76 35.1303 22.76 35.1302C22.76 35.1301 22.76 35.13 22.76 35.1298C22.76 35.1297 22.76 35.1296 22.76 35.1295C22.76 35.1294 22.76 35.1293 22.76 35.1292C22.76 35.1291 22.76 35.129 22.76 35.1289C22.76 35.1288 22.76 35.1287 22.76 35.1286C22.76 35.1285 22.76 35.1284 22.76 35.1283C22.76 35.1282 22.76 35.1281 22.76 35.128C22.76 35.1279 22.76 35.1278 22.76 35.1277C22.76 35.1276 22.76 35.1275 22.76 35.1274C22.76 35.1273 22.76 35.1272 22.76 35.1271C22.76 35.127 22.76 35.1269 22.76 35.1268C22.76 35.1267 22.76 35.1266 22.76 35.1265C22.76 35.1264 22.76 35.1264 22.76 35.1263C22.76 35.1262 22.76 35.1261 22.76 35.126C22.76 35.1259 22.76 35.1258 22.76 35.1257C22.76 35.1256 22.76 35.1255 22.76 35.1254C22.76 35.1254 22.76 35.1253 22.76 35.1252C22.76 35.1251 22.76 35.125 22.76 35.1249C22.76 35.1248 22.76 35.1247 22.76 35.1247C22.76 35.1246 22.76 35.1245 22.76 35.1244C22.76 35.1243 22.76 35.1242 22.76 35.1241C22.76 35.1241 22.76 35.124 22.76 35.1239C22.76 35.1238 22.76 35.1237 22.76 35.1237C22.76 35.1236 22.76 35.1235 22.76 35.1234C22.76 35.1233 22.76 35.1233 22.76 35.1232C22.76 35.1231 22.76 35.123 22.76 35.1229C22.76 35.1229 22.76 35.1228 22.76 35.1227C22.76 35.1226 22.76 35.1226 22.76 35.1225C22.76 35.1224 22.76 35.1223 22.76 35.1223C22.76 35.1222 22.76 35.1221 22.76 35.122C22.76 35.122 22.76 35.1219 22.76 35.1218C22.76 35.1217 22.76 35.1217 22.76 35.1216C22.76 35.1215 22.76 35.1215 22.76 35.1214C22.76 35.1213 22.76 35.1212 22.76 35.1212C22.76 35.1211 22.76 35.121 22.76 35.121C22.76 35.1209 22.76 35.1208 22.76 35.1208C22.76 35.1207 22.76 35.1206 22.76 35.1206C22.76 35.1205 22.76 35.1204 22.76 35.1204C22.76 35.1203 22.76 35.1203 22.76 35.1202C22.76 35.1201 22.76 35.1201 22.76 35.12C22.76 35.1199 22.76 35.1199 22.76 35.1198C22.76 35.1198 22.76 35.1197 22.76 35.1196C22.76 35.1196 22.76 35.1195 22.76 35.1195C22.76 35.1194 22.76 35.1193 22.76 35.1193C22.76 35.1192 22.76 35.1192 22.76 35.1191C22.76 35.1191 22.76 35.119 22.76 35.119C22.76 35.1189 22.76 35.1188 22.76 35.1188C22.76 35.1187 22.76 35.1187 22.76 35.1186C22.76 35.1186 22.76 35.1185 22.76 35.1185C22.76 35.1184 22.76 35.1184 22.76 35.1183C22.76 35.1183 22.76 35.1182 22.76 35.1182C22.76 35.1181 22.76 35.1181 22.76 35.118C22.76 35.118 22.76 35.1179 22.76 35.1179C22.76 35.1178 22.76 35.1178 22.76 35.1177C22.76 35.1177 22.76 35.1177 22.76 35.1176C22.76 35.1176 22.76 35.1175 22.76 35.1175C22.76 35.1174 22.76 35.1174 22.76 35.1173C22.76 35.1173 22.76 35.1173 22.76 35.1172C22.76 35.1172 22.76 35.1171 22.76 35.1171C22.76 35.1171 22.76 35.117 22.76 35.117C22.76 35.1169 22.76 35.1169 22.76 35.1169C22.76 35.1168 22.76 35.1168 22.76 35.1168C22.76 35.1167 22.76 35.1167 22.76 35.1166C22.76 35.1166 22.76 35.1166 22.76 35.1165C22.76 35.1165 22.76 35.1165 22.76 35.1164C22.76 35.1164 22.76 35.1164 22.76 35.1163C22.76 35.1163 22.76 35.1163 22.76 35.1162C22.76 35.1162 22.76 35.1162 22.76 35.1162C22.76 35.1161 22.76 35.1161 22.76 35.1161C22.76 35.116 22.76 35.116 22.76 35.116C22.76 35.116 22.76 35.1159 22.76 35.1159C22.76 35.1159 22.76 35.1159 22.76 35.1158C22.76 35.1158 22.76 35.1158 22.76 35.1158C22.76 35.1157 22.76 35.1157 22.76 35.1157C22.76 35.1157 22.76 35.1156 22.76 35.1156C22.76 35.1156 22.76 35.1156 22.76 35.1156C22.76 35.1155 22.76 35.1155 22.76 35.1155C22.76 35.1155 22.76 35.1155 22.76 35.1154C22.76 35.1154 22.76 35.1154 22.76 35.1154C22.76 35.1154 22.76 35.1154 22.76 35.1153C22.76 35.1153 22.76 35.1153 22.76 35.1153C22.76 35.1153 22.76 35.1153 22.76 35.1152C22.76 35.1152 22.76 35.1152 22.76 35.1152C22.76 35.1152 22.76 35.1152 22.76 35.1152C22.76 35.1152 22.76 35.1152 22.76 35.1151C22.76 35.1151 22.76 35.1151 22.76 35.1151C22.76 35.1151 22.76 35.1151 22.76 35.1151C22.76 35.1151 22.76 35.1151 22.76 35.1151C22.76 35.1151 22.76 35.115 22.76 35.115C22.76 35.115 22.76 35.115 22.76 35.115C22.76 35.115 22.76 35.115 22.76 35.115C22.76 35.115 22.76 35.115 22.76 35.115C22.76 35.115 22.76 35.115 22.76 35.115C22.76 35.115 22.76 35.115 21.96 35.115ZM21.96 35.565H21.16C21.16 35.8129 21.1351 36.0162 21.0939 36.181L21.87 36.375L22.6461 36.569C22.7249 36.2538 22.76 35.9171 22.76 35.565H21.96ZM21.87 36.375L21.0734 36.3009C20.8341 38.8734 20.5682 40.7301 20.2828 41.9004L21.06 42.09L21.8372 42.2796C22.1518 40.9899 22.4259 39.0366 22.6666 36.4491L21.87 36.375ZM21.06 42.09L20.2786 41.9185C20.0159 43.1152 19.6929 43.7915 19.3964 44.1078L19.98 44.655L20.5636 45.2022C21.1671 44.5585 21.5641 43.5248 21.8414 42.2615L21.06 42.09ZM19.98 44.655L19.4419 44.063C19.1907 44.2914 18.9322 44.4381 18.6647 44.5204L18.9 45.285L19.1353 46.0496C19.6478 45.8919 20.1093 45.6186 20.5181 45.247L19.98 44.655ZM18.9 45.285L18.6128 44.5383C18.3241 44.6494 17.9325 44.729 17.418 44.7561L17.46 45.555L17.502 46.3539C18.1275 46.321 18.6959 46.2206 19.1872 46.0317L18.9 45.285ZM17.46 45.555L17.403 44.757C17.0274 44.7839 16.4175 44.7853 15.5526 44.7555L15.525 45.555L15.4974 46.3545C16.3725 46.3847 17.0526 46.3861 17.517 46.353L17.46 45.555ZM15.525 45.555V44.755C14.6641 44.755 13.7422 44.7402 12.7592 44.7104L12.735 45.51L12.7108 46.3096C13.7078 46.3398 14.6459 46.355 15.525 46.355V45.555ZM12.735 45.51H13.535C13.535 45.0466 13.4398 44.5312 13.2775 43.9793L12.51 44.205L11.7425 44.4307C11.8802 44.8988 11.935 45.2534 11.935 45.51H12.735ZM12.51 44.205L13.2861 44.011C13.1511 43.4709 12.9605 42.9781 12.706 42.5419L12.015 42.945L11.324 43.3481C11.4895 43.6319 11.6289 43.9791 11.7339 44.399L12.51 44.205ZM12.015 42.945L11.9354 43.741C12.8567 43.8332 13.7087 43.88 14.49 43.88V43.08V42.28C13.7713 42.28 12.9733 42.2368 12.0946 42.149L12.015 42.945ZM14.49 43.08L14.4593 43.8794C15.2384 43.9094 15.7927 43.925 16.11 43.925V43.125V42.325C15.8273 42.325 15.3016 42.3106 14.5207 42.2806L14.49 43.08ZM16.11 43.125V43.925C16.4933 43.925 16.8679 43.8956 17.173 43.7939L16.92 43.035L16.667 42.2761C16.6121 42.2944 16.4467 42.325 16.11 42.325V43.125ZM16.92 43.035L17.0331 43.827C17.4145 43.7725 17.7533 43.6031 18.0257 43.3307L17.46 42.765L16.8943 42.1993C16.8667 42.2269 16.8455 42.2375 16.8069 42.243L16.92 43.035ZM17.46 42.765L17.9952 43.3596C18.2881 43.096 18.4823 42.7157 18.6246 42.339C18.7741 41.9434 18.9007 41.4566 19.0103 40.8927L18.225 40.74L17.4397 40.5873C17.3393 41.1034 17.2334 41.4941 17.1279 41.7735C17.0754 41.9123 17.0273 42.0124 16.9867 42.0814C16.9451 42.1523 16.9215 42.1734 16.9248 42.1704L17.46 42.765ZM18.225 40.74L19.0069 40.9091C19.2592 39.7424 19.4722 37.9566 19.6527 35.5806L18.855 35.52L18.0573 35.4594C17.8778 37.8234 17.6708 39.5176 17.4431 40.5709L18.225 40.74ZM18.855 35.52H19.655V35.115H18.855H18.055V35.52H18.855ZM10.62 32.19V32.99H13.635V32.19V31.39H10.62V32.19ZM13.635 32.19L12.8396 32.1048C12.6635 33.748 12.3857 35.2495 12.009 36.6117L12.78 36.825L13.551 37.0383C13.9543 35.5805 14.2465 33.992 14.4304 32.2752L13.635 32.19ZM12.78 36.825L12.0059 36.6231C11.6669 37.9224 11.1465 39.1015 10.4467 40.1653L11.115 40.605L11.7833 41.0447C12.5835 39.8285 13.1731 38.4876 13.5541 37.0269L12.78 36.825ZM11.115 40.605L10.4521 40.1571C9.76963 41.1672 8.84697 42.0538 7.66739 42.8121L8.1 43.485L8.53261 44.1579C9.87303 43.2962 10.9604 42.2628 11.7779 41.0529L11.115 40.605ZM8.1 43.485L7.64883 42.8244C6.49836 43.61 5.02777 44.3003 3.2194 44.8836L3.465 45.645L3.7106 46.4064C5.62223 45.7897 7.24164 45.04 8.55117 44.1456L8.1 43.485ZM3.465 45.645L4.19329 45.314C4.00889 44.9083 3.71531 44.4504 3.34 43.95L2.7 44.43L2.06 44.91C2.40469 45.3696 2.62111 45.7217 2.73671 45.976L3.465 45.645ZM2.7 44.43L3.34512 43.9569C2.99052 43.4734 2.62829 43.0691 2.25476 42.7703L1.755 43.395L1.25524 44.0197C1.48171 44.2009 1.74948 44.4866 2.05488 44.9031L2.7 44.43ZM1.755 43.395L1.9707 44.1654C4.28274 43.518 6.12809 42.6516 7.44812 41.5296L6.93 40.92L6.41188 40.3104C5.33191 41.2284 3.72726 42.012 1.5393 42.6246L1.755 43.395ZM6.93 40.92L7.44941 41.5285C8.77975 40.3928 9.73443 39.0323 10.2941 37.4521L9.54 37.185L8.7859 36.9179C8.32557 38.2177 7.54025 39.3472 6.41059 40.3116L6.93 40.92ZM9.54 37.185L10.2891 37.4659C10.8588 35.9466 11.2312 34.2103 11.4164 32.2658L10.62 32.19L9.8236 32.1142C9.64879 33.9497 9.30122 35.5434 8.79094 36.9041L9.54 37.185ZM28.89 25.485L28.7154 26.2657L32.1354 27.0307L32.31 26.25L32.4846 25.4693L29.0646 24.7043L28.89 25.485ZM32.31 26.25L31.6266 25.834C31.2146 26.5109 30.8039 27.1415 30.3946 27.7262L31.05 28.185L31.7054 28.6438C32.1361 28.0285 32.5654 27.3691 32.9934 26.666L32.31 26.25ZM31.05 28.185L30.406 27.7104C29.9962 28.2665 29.6044 28.7596 29.2305 29.1911L29.835 29.715L30.4396 30.2389C30.8456 29.7704 31.2638 29.2435 31.694 28.6596L31.05 28.185ZM29.835 29.715L30.0176 28.9361L27.1376 28.2611L26.955 29.04L26.7724 29.8189L29.6524 30.4939L29.835 29.715ZM26.955 29.04L27.6543 29.4285C27.9502 28.896 28.2915 28.3023 28.6787 27.647L27.99 27.24L27.3013 26.833C26.9085 27.4977 26.5598 28.104 26.2557 28.6515L26.955 29.04ZM27.99 27.24L28.6865 27.6336C29.0838 26.9306 29.398 26.3197 29.6229 25.8057L28.89 25.485L28.1571 25.1643C27.962 25.6103 27.6762 26.1694 27.2936 26.8464L27.99 27.24ZM12.87 26.295L13.0291 27.079L16.1341 26.449L15.975 25.665L15.8159 24.881L12.7109 25.511L12.87 26.295ZM15.975 25.665L15.4278 26.2486C15.8506 26.6449 16.2422 27.1285 16.5998 27.7061L17.28 27.285L17.9602 26.8639C17.5378 26.1815 17.0594 25.5851 16.5222 25.0814L15.975 25.665ZM17.28 27.285L16.6092 27.721C16.9751 28.2839 17.2272 28.7816 17.3806 29.2163L18.135 28.95L18.8894 28.6837C18.6828 28.0984 18.3649 27.4861 17.9508 26.849L17.28 27.285ZM18.135 28.95L17.9536 28.1708L14.6686 28.9358L14.85 29.715L15.0314 30.4942L18.3164 29.7292L18.135 28.95ZM14.85 29.715L15.6175 29.4893C15.4411 28.8895 15.1343 28.2528 14.7202 27.5839L14.04 28.005L13.3598 28.4261C13.7257 29.0171 13.9589 29.5205 14.0825 29.9407L14.85 29.715ZM14.04 28.005L14.7346 27.6081C14.3543 26.9425 13.939 26.3346 13.4875 25.7864L12.87 26.295L12.2525 26.8036C12.641 27.2754 13.0057 27.8075 13.3454 28.4019L14.04 28.005Z" fill="#3C4C27" mask="url(#path-1-outside-1_414_374)"/>
</svg>
