<svg width="663" height="993" viewBox="0 0 663 993" fill="none" xmlns="http://www.w3.org/2000/svg">
<path d="M600.92 705.634C604.151 704.397 604.76 703.589 601.188 703.081C598.326 702.674 594.744 702.164 591.804 701.746C588.158 701.228 584.56 701.617 581.27 702.894C561.104 710.716 484.638 739.992 446.071 749.268C401.832 759.909 365.946 768.118 357.41 770.062C356.117 770.357 354.811 770.518 353.469 770.601C347.469 770.972 330.678 772.587 340.168 778.78C343.566 780.997 342.207 783.518 345.692 789.948C349.177 796.378 417.692 765.225 463.233 754.272C501.528 745.062 516.24 738.916 521.046 736.531C522.433 735.844 523.805 735.137 525.263 734.579L600.92 705.634Z" fill="#3C4C27" fill-opacity="0.9"/>
<path d="M341.584 785.71C341.986 782.737 339.966 780.033 337.512 777.907C333.357 774.309 326.925 774.157 321.354 775.83C297.294 783.054 228.791 803.808 183.147 819.48C127.849 838.466 48.6709 867.973 28.3953 875.559C25.1628 876.768 22.3725 878.614 20.3288 881.069C16.4165 885.77 10.2236 893.884 9.58243 898.848C9.46851 899.73 9.51201 900.607 9.67692 901.466C11.2676 909.754 24.1842 909.72 32.1969 904.87C58.3784 889.021 117.239 854.776 160.511 839.92C211.307 822.481 300.275 804.423 332.82 798.085C337.739 797.127 341.006 789.99 341.584 785.71Z" fill="#3C4C27" fill-opacity="0.9"/>
<path d="M541.122 225.304C537.909 221.119 525.193 250.608 525.193 250.608C525.193 250.608 511.324 288.156 497.572 324.975C484.803 359.163 463.968 403.82 456.746 419.07C455.079 422.589 454.423 426.511 455.201 430.333C456.069 434.602 457.481 440.039 459.388 442.499C463.92 448.341 471.835 441.218 473.742 434.094C478.989 414.498 490.049 374.659 500.268 347.3C512.816 313.707 536.415 256.449 544.781 236.26C546.107 233.061 543.238 228.059 541.122 225.304Z" fill="#3C4C27" fill-opacity="0.9"/>
<path d="M547.292 228.974C550.861 232.295 560.827 208.631 560.827 208.631C560.827 208.631 571.213 178.517 581.548 148.986C593.304 115.398 593.437 75.7374 593.437 75.7374C593.437 75.7374 593.542 44.8007 588.13 48.7162C585.884 50.3407 579.132 54.4645 579.465 57.2425C581.655 75.4586 584.325 109.827 576.857 131.162C567.65 157.469 550.016 201.883 543.151 219.046C541.895 222.185 544.776 226.632 547.292 228.974Z" fill="#3C4C27" fill-opacity="0.9"/>
<path d="M451.85 437.245C447.456 434.632 440.971 440.876 438.052 444.1C437.007 445.254 436.222 446.582 435.628 448.025C432.744 455.026 422.705 480.334 402.142 540.939C381.984 600.347 367.687 630.144 359.126 644.779C354.917 651.974 356.551 663.359 363.638 668.562C371.417 674.275 380.717 668.64 382.598 659.613C387.632 635.442 397.842 589.894 408.842 560.822C422.14 525.678 447.827 482.059 458.608 464.374C461.708 459.289 462.403 452.943 459.546 447.433C457.39 443.274 454.613 438.888 451.85 437.245Z" fill="#3C4C27" fill-opacity="0.9"/>
<path d="M354.605 671.44C352.747 668.984 349.3 668.018 345.93 667.724C340.152 667.22 335.076 671.016 332.025 676.03C317.097 700.565 270.886 776.452 247.524 814.063C221.953 855.229 195.743 894.69 186.28 908.831C183.878 912.419 182.636 916.61 183.085 920.822C183.697 926.558 185.029 934.562 187.847 938.248C188.939 939.675 190.462 940.761 192.158 941.588C199.397 945.118 207.302 939.302 210.617 931.79C221.177 907.865 245.409 854.699 267.055 819.854C291.427 780.619 338.557 730.007 358.683 709.066C364.395 703.123 366.193 694.481 362.869 687.193C360.066 681.05 356.768 674.3 354.605 671.44Z" fill="#3C4C27" fill-opacity="0.9"/>
<path d="M344.58 782.813C348.299 783.207 371.282 757.199 371.282 757.199C371.282 757.199 376.65 749.157 377.991 724.45C379.01 705.673 378.155 703.081 378.155 703.081C378.155 703.081 375.625 697.917 371.727 697.517C367.797 697.113 360.573 719.506 360.573 719.506C360.573 719.506 358.562 724.948 359.325 741.776C360.164 760.288 350.423 771.494 350.423 771.494C350.423 771.494 340.86 782.418 344.58 782.813Z" fill="#3C4C27" fill-opacity="0.7"/>
<path d="M442.764 686.364C439.961 683.039 432.926 677.652 428.788 674.6C426.704 673.063 424.285 671.913 421.67 671.256C414.149 669.364 397.807 665.746 390.04 667.819C387.815 668.413 386.107 670.219 386.344 672.238C386.388 672.609 386.508 672.961 386.743 673.253C387.634 674.357 388.778 675.944 390.304 676.159C394.198 676.71 401.299 677.646 407.941 678.162C408.994 678.244 409.961 678.315 410.849 678.377C417.057 678.808 423.67 680.369 429.138 683.067C437.02 686.956 446.938 691.316 442.764 686.364Z" fill="#3C4C27" fill-opacity="0.7"/>
<path d="M400.571 337.011C400.587 338 401.489 338.433 402.463 338.613C404.059 338.908 405.674 338.774 407.28 338.941C415.835 339.834 444.873 342.63 456.249 340.758C464.306 339.432 469.351 336.086 472.318 333.223C475.134 330.506 479.973 328.199 479.891 324.235C479.819 320.71 476.692 317.453 473.252 318.489C464.496 321.126 450.893 325.006 442.199 326.436C427.155 328.911 420.149 330.508 420.149 330.508C420.149 330.508 400.537 334.852 400.571 337.011Z" fill="#3C4C27" fill-opacity="0.7"/>
<path d="M599.652 628.579C598.949 628.331 598.353 628.477 597.862 628.803C596.161 629.934 595.566 632.132 594.423 633.816C589.568 640.967 576.019 661.449 573.629 670.766C571.856 677.678 573.514 682.993 575.447 686.449C577.303 689.764 578.444 694.568 582.071 695.835C586.004 697.209 590.688 695.098 591.038 690.921C591.694 683.068 592.847 672.197 594.59 665.404C597.868 652.628 598.917 646.503 598.917 646.503C598.917 646.503 601.989 629.406 599.652 628.579Z" fill="#3C4C27" fill-opacity="0.7"/>
<path d="M405.887 291.096C405.205 291.868 405.576 292.665 406.193 293.309C407.252 294.415 408.675 295.172 409.853 296.168C416.037 301.395 436.907 318.708 447.217 323.164C454.542 326.33 460.934 326.32 465.333 325.607C469.512 324.929 475.017 325.597 477.76 322.462C480.237 319.63 480.034 315.41 476.495 314.409C467.679 311.913 454.241 307.894 446.382 304.497C432.714 298.589 426.03 296.19 426.03 296.19C426.03 296.19 407.409 289.37 405.887 291.096Z" fill="#3C4C27" fill-opacity="0.7"/>
<path d="M536.468 0.697504C535.725 0.86845 535.768 1.58473 536.028 2.30434C536.449 3.47089 537.167 4.54531 537.675 5.68881C540.388 11.8039 549.806 32.6046 555.716 40.2755C559.88 45.6791 564.358 48.6737 567.67 50.2988C570.786 51.8278 574.083 54.9777 577.439 54.1875C579.976 53.5899 581.561 51.1889 579.83 49.3782C574.428 43.7276 565.582 34.2753 560.864 28.1507C553.055 18.0143 549.086 13.3649 549.086 13.3649C549.086 13.3649 538.069 0.328526 536.468 0.697504Z" fill="#3C4C27" fill-opacity="0.7"/>
<path d="M526.167 33.3969C525.888 33.6997 525.839 34.0116 525.922 34.3087C526.34 35.8039 528.168 36.4905 529.341 37.5544C534.066 41.8378 547.144 53.4124 553.865 56.5399C558.858 58.8628 563.299 58.9244 566.375 58.4671C569.301 58.0321 573.13 58.5235 575.09 56.381C576.904 54.3976 576.815 51.3968 574.305 50.6219C568.261 48.7559 559.168 45.7938 553.864 43.3253C544.558 38.9949 539.993 37.2233 539.993 37.2233C539.993 37.2233 527.278 32.1933 526.167 33.3969Z" fill="#3C4C27" fill-opacity="0.7"/>
<path d="M571.549 369.231C569.924 366.985 557.844 379.098 553.633 383.441C552.663 384.441 551.613 385.346 550.435 386.167C543.189 391.222 515.381 410.668 502.454 420.435C490.462 429.496 480.066 436.927 474.989 440.514C472.806 442.056 470.83 443.901 470.163 446.247C469.734 447.753 469.604 449.466 470.533 450.739C474.371 455.995 481.873 458.777 487.774 455.095C498.944 448.126 515.211 437.74 524.558 430.678C538.094 420.45 544.968 410.365 547.108 406.87C547.629 406.019 548.152 405.196 548.762 404.388C553.301 398.382 573.299 371.65 571.549 369.231Z" fill="#3C4C27" fill-opacity="0.7"/>
<path d="M316.369 591.785C315.534 591.941 315.143 592.441 314.991 593.034C314.55 594.758 315.388 596.616 315.562 598.417C316.338 606.453 318.936 630.21 323.248 639.1C326.411 645.621 331.312 649.173 335.207 651.069C338.936 652.885 342.996 656.311 346.954 655.556C351.08 654.769 353.672 650.938 351.314 647.565C346.569 640.776 340.042 631.033 336.861 624.475C331.001 612.391 327.762 606.853 327.762 606.853C327.762 606.853 318.841 591.323 316.369 591.785Z" fill="#3C4C27" fill-opacity="0.7"/>
<path d="M478.573 244.894C475.044 238.084 485.324 250.903 485.43 258.622L485.957 296.8L488.518 342.739C488.779 347.418 484.512 357.198 483.687 352.595C482.857 347.961 482.3 298.26 482.3 298.26C482.3 298.26 483.76 254.902 478.573 244.894Z" fill="#3C4C27" fill-opacity="0.9"/>
<path d="M426.193 778.914C428.744 777.314 432.63 749.54 433.785 740.874C434.011 739.174 433.957 737.477 433.556 735.819C431.8 728.573 425.832 707.421 414.024 697.726C397.673 684.301 382.68 676.689 382.68 676.689C382.68 676.689 376.519 674.348 373.36 676.347C367.977 679.752 365.886 686.222 370.563 690.072C380.63 698.358 395.131 711.163 401.119 720.708C412.383 738.661 416.387 754.288 416.387 754.288C416.387 754.288 423.168 780.812 426.193 778.914Z" fill="#3C4C27" fill-opacity="0.7"/>
<path d="M827.648 581.768C829.959 580.365 830.51 579.72 827.727 580.075C824.322 580.509 819.348 581.144 815.803 581.597C812.957 581.96 810.282 582.895 807.926 584.341C792.069 594.073 727.187 633.558 692.859 649.327C648.163 669.859 612.979 685.536 612.979 685.536C612.979 685.536 579.701 697.638 593.046 700.387C597.009 701.203 600.031 704.057 611.727 698.003C623.423 691.95 670.823 667.384 710.889 648.98C744.192 633.683 756.405 625.859 760.385 622.949C761.569 622.083 762.735 621.194 763.997 620.427L827.648 581.768Z" fill="#3C4C27" fill-opacity="0.9"/>
<path d="M741.869 707.089C742.497 704.436 723.012 706.383 716.939 707.052C715.752 707.183 714.573 707.22 713.377 707.151C704.867 706.656 668.006 704.547 650.438 704.122C633.653 703.715 619.585 703.025 613.407 702.693C611.173 702.573 608.912 702.747 606.924 703.729C605.176 704.592 603.269 705.897 602.873 707.602C601.499 713.529 604.137 720.019 610.236 720.663C623.954 722.112 645.352 724.182 658.364 724.498C680.725 725.04 695.466 719.785 695.466 719.785C695.466 719.785 741.124 710.23 741.869 707.089Z" fill="#3C4C27" fill-opacity="0.7"/>
<path d="M641.588 291.896C643.195 290.588 636.155 275.4 630.14 263.218C625.823 254.477 613.465 249.063 603.173 245.494C601.119 244.782 598.905 243.899 596.536 242.81C582.969 236.572 571.715 231.047 566.302 228.354C564.001 227.209 561.473 226.334 558.801 226.449C556.847 226.533 554.638 226.902 553.297 228.002C544.441 235.265 557.079 247.461 569.226 248.504C578.503 249.301 588.477 250.935 595.559 254.192C596.99 254.849 598.335 255.448 599.6 255.994C609.679 260.341 622.542 267.951 628.218 276.285C633.879 284.597 640.165 293.055 641.588 291.896Z" fill="#3C4C27" fill-opacity="0.7"/>
<path d="M632.038 233.322C632.619 232.019 626.751 225.604 620.657 219.442C613.855 212.562 600.213 212.36 589.86 212.536C580.595 212.693 572.658 212.618 568.037 212.541C565.194 212.494 562.178 212.802 559.898 214.583C559.062 215.236 558.31 216.023 557.913 216.921C554.444 224.774 566.611 229.629 574.842 226.129C580.747 223.62 587.126 221.548 592.234 221.462C601.497 221.305 614.633 223.194 621.826 228.197C626.834 231.679 631.511 234.504 632.038 233.322Z" fill="#3C4C27" fill-opacity="0.7"/>
</svg>
