<svg width="40" height="40" viewBox="0 0 40 40" fill="none" xmlns="http://www.w3.org/2000/svg">
<path d="M1.40256 7.91613C0.465841 7.0346 0 5.94342 0 4.64512C0 3.34681 0.468332 2.20763 1.40256 1.32356C2.33929 0.442028 3.54507 0 5.02241 0C6.49974 0 7.6582 0.442028 8.59243 1.32356C9.52916 2.2051 9.995 3.31397 9.995 4.64512C9.995 5.97626 9.52666 7.0346 8.59243 7.91613C7.65571 8.79767 6.46735 9.2397 5.02241 9.2397C3.57746 9.2397 2.33929 8.79767 1.40256 7.91613ZM9.20777 12.973L9.20777 40H0.78473L0.78473 12.973L9.20777 12.973Z" fill="white"/>
<path d="M37.2472 15.6424C39.0833 17.6631 40.0001 20.4365 40.0001 23.9677V39.5222L32.0006 39.5222V25.064C32.0006 23.2832 31.5447 21.899 30.6354 20.9139C29.7261 19.9288 28.5004 19.4338 26.9658 19.4338C25.4311 19.4338 24.2054 19.9263 23.296 20.9139C22.3867 21.899 21.9308 23.2832 21.9308 25.064L21.9308 39.5222H13.884L13.884 12.8968L21.9308 12.8968V16.4279C22.7455 15.2508 23.8442 14.3213 25.2244 13.6368C26.6045 12.9523 28.1566 12.6113 29.883 12.6113C32.9573 12.6113 35.4137 13.6217 37.2472 15.6424Z" fill="white"/>
</svg>
