<svg width="40" height="40" viewBox="0 0 40 40" fill="none" xmlns="http://www.w3.org/2000/svg">
<path d="M19.5257 4.24286C19.4843 4.07777 19.4828 3.9052 19.5214 3.73942C19.5599 3.57365 19.6375 3.41945 19.7475 3.28959C19.8575 3.15974 19.9969 3.05796 20.1541 2.9927C20.3113 2.92743 20.4818 2.90056 20.6514 2.91429C29.4671 3.62286 36.4 11 36.4 20C36.4 29.4686 28.7257 37.1429 19.2571 37.1429C16.2551 37.1441 13.3055 36.3566 10.7036 34.8593C8.10169 33.3621 5.93877 31.2075 4.4314 28.6114C4.34751 28.4675 4.29833 28.306 4.28779 28.1397C4.27725 27.9734 4.30563 27.807 4.37067 27.6536C4.43571 27.5002 4.53562 27.3641 4.66247 27.2561C4.78932 27.1481 4.93961 27.0712 5.1014 27.0314C7.38568 26.47 10.1728 25.5686 12.7014 24.1686C15.2343 22.7643 17.43 20.9014 18.6557 18.45C21.1043 13.5543 20.4571 7.95715 19.5257 4.24286Z" fill="#EE9695"/>
</svg>
