<svg width="1512" height="1273" viewBox="0 0 1512 1273" fill="none" xmlns="http://www.w3.org/2000/svg">
<g filter="url(#filter0_f_260_935)">
<path d="M1181 507.5C1181 653.579 990.721 772 756 772C521.279 772 331 653.579 331 507.5C331 361.421 521.279 243 756 243C990.721 243 1181 361.421 1181 507.5Z" fill="#EE9695"/>
<path d="M756 242.5C873.439 242.5 979.783 272.124 1056.78 320.046C1133.78 367.963 1181.5 434.225 1181.5 507.5C1181.5 580.775 1133.78 647.037 1056.78 694.954C979.783 742.876 873.439 772.5 756 772.5C638.561 772.5 532.217 742.876 455.216 694.954C378.222 647.037 330.5 580.775 330.5 507.5C330.5 434.225 378.222 367.963 455.216 320.046C532.217 272.124 638.561 242.5 756 242.5Z" stroke="black"/>
</g>
<defs>
<filter id="filter0_f_260_935" x="-170" y="-258" width="1852" height="1531" filterUnits="userSpaceOnUse" color-interpolation-filters="sRGB">
<feFlood flood-opacity="0" result="BackgroundImageFix"/>
<feBlend mode="normal" in="SourceGraphic" in2="BackgroundImageFix" result="shape"/>
<feGaussianBlur stdDeviation="250" result="effect1_foregroundBlur_260_935"/>
</filter>
</defs>
</svg>
