<svg width="40" height="39" viewBox="0 0 40 39" fill="none" xmlns="http://www.w3.org/2000/svg">
<path d="M19.9993 3.25082C20.5743 3.25082 21.041 3.70582 21.041 4.26645V6.2977C21.041 6.56706 20.9312 6.82539 20.7359 7.01586C20.5405 7.20632 20.2756 7.31332 19.9993 7.31332C19.7231 7.31332 19.4581 7.20632 19.2628 7.01586C19.0674 6.82539 18.9577 6.56706 18.9577 6.2977V4.26645C18.9577 3.70582 19.4243 3.25082 19.9993 3.25082ZM28.3518 19.5382C28.3518 24.0143 24.6302 27.6429 20.0393 27.6429C15.4477 27.6429 11.726 24.0143 11.726 19.5382C11.726 15.0613 15.4477 11.4327 20.0393 11.4327C24.6302 11.4327 28.3518 15.0613 28.3518 19.5382ZM35.6252 20.5156C35.9014 20.5156 36.1664 20.4086 36.3617 20.2182C36.5571 20.0277 36.6668 19.7694 36.6668 19.5C36.6668 19.2307 36.5571 18.9723 36.3617 18.7819C36.1664 18.5914 35.9014 18.4844 35.6252 18.4844H33.5418C33.2656 18.4844 33.0006 18.5914 32.8053 18.7819C32.6099 18.9723 32.5002 19.2307 32.5002 19.5C32.5002 19.7694 32.6099 20.0277 32.8053 20.2182C33.0006 20.4086 33.2656 20.5156 33.5418 20.5156H35.6252ZM19.9993 31.6875C20.5743 31.6875 21.041 32.1425 21.041 32.7031V34.7344C21.041 35.0037 20.9312 35.2621 20.7359 35.4525C20.5405 35.643 20.2756 35.75 19.9993 35.75C19.7231 35.75 19.4581 35.643 19.2628 35.4525C19.0674 35.2621 18.9577 35.0037 18.9577 34.7344V32.7031C18.9577 32.1425 19.4243 31.6875 19.9993 31.6875ZM6.4585 20.5156C6.73476 20.5156 6.99972 20.4086 7.19507 20.2182C7.39042 20.0277 7.50016 19.7694 7.50016 19.5C7.50016 19.2307 7.39042 18.9723 7.19507 18.7819C6.99972 18.5914 6.73476 18.4844 6.4585 18.4844H4.37516C4.0989 18.4844 3.83394 18.5914 3.63859 18.7819C3.44324 18.9723 3.3335 19.2307 3.3335 19.5C3.3335 19.7694 3.44324 20.0277 3.63859 20.2182C3.83394 20.4086 4.0989 20.5156 4.37516 20.5156H6.4585ZM7.80516 7.60989C7.90189 7.51555 8.01674 7.44071 8.14314 7.38966C8.26954 7.3386 8.40501 7.31232 8.54183 7.31232C8.67865 7.31232 8.81412 7.3386 8.94052 7.38966C9.06692 7.44071 9.18176 7.51555 9.2785 7.60989L11.3618 9.64114C11.4586 9.73546 11.5353 9.84744 11.5877 9.97067C11.64 10.0939 11.667 10.226 11.667 10.3594C11.667 10.4928 11.64 10.6249 11.5877 10.7481C11.5353 10.8713 11.4586 10.9833 11.3618 11.0776C11.2651 11.172 11.1502 11.2468 11.0238 11.2978C10.8974 11.3489 10.762 11.3751 10.6252 11.3751C10.4884 11.3751 10.3529 11.3489 10.2265 11.2978C10.1001 11.2468 9.98524 11.172 9.8885 11.0776L7.80516 9.04639C7.70841 8.95207 7.63165 8.8401 7.57929 8.71686C7.52692 8.59362 7.49997 8.46153 7.49997 8.32814C7.49997 8.19474 7.52692 8.06265 7.57929 7.93941C7.63165 7.81617 7.70841 7.7042 7.80516 7.60989ZM9.2785 31.3909C9.08312 31.5814 8.81813 31.6885 8.54183 31.6885C8.26553 31.6885 8.00054 31.5814 7.80516 31.3909C7.60979 31.2005 7.50003 30.9421 7.50003 30.6727C7.50003 30.4033 7.60979 30.1449 7.80516 29.9545L9.8885 27.9232C9.98524 27.8289 10.1001 27.7541 10.2265 27.703C10.3529 27.652 10.4884 27.6257 10.6252 27.6257C10.762 27.6257 10.8974 27.652 11.0238 27.703C11.1502 27.7541 11.2651 27.8289 11.3618 27.9232C11.4586 28.0175 11.5353 28.1295 11.5877 28.2527C11.64 28.376 11.667 28.5081 11.667 28.6415C11.667 28.7748 11.64 28.9069 11.5877 29.0302C11.5353 29.1534 11.4586 29.2654 11.3618 29.3597L9.2785 31.3909ZM32.1952 7.60989C31.9998 7.41961 31.735 7.31273 31.4589 7.31273C31.1828 7.31273 30.918 7.41961 30.7227 7.60989L28.6393 9.64114C28.444 9.83163 28.3342 10.09 28.3342 10.3594C28.3342 10.6288 28.444 10.8871 28.6393 11.0776C28.8347 11.2681 29.0997 11.3751 29.376 11.3751C29.6523 11.3751 29.9173 11.2681 30.1127 11.0776L32.196 9.04639C32.2928 8.95207 32.3695 8.8401 32.4219 8.71686C32.4742 8.59362 32.5012 8.46153 32.5012 8.32814C32.5012 8.19474 32.4742 8.06265 32.4219 7.93941C32.3695 7.81617 32.2919 7.7042 32.1952 7.60989ZM30.7227 31.3909C30.918 31.5814 31.183 31.6885 31.4593 31.6885C31.7356 31.6885 32.0006 31.5814 32.196 31.3909C32.3914 31.2005 32.5011 30.9421 32.5011 30.6727C32.5011 30.4033 32.3914 30.1449 32.196 29.9545L30.1127 27.9232C30.0159 27.8289 29.9011 27.7541 29.7747 27.703C29.6483 27.652 29.5128 27.6257 29.376 27.6257C29.2392 27.6257 29.1037 27.652 28.9773 27.703C28.8509 27.7541 28.7361 27.8289 28.6393 27.9232C28.5426 28.0175 28.4658 28.1295 28.4135 28.2527C28.3611 28.376 28.3342 28.5081 28.3342 28.6415C28.3342 28.7748 28.3611 28.9069 28.4135 29.0302C28.4658 29.1534 28.5426 29.2654 28.6393 29.3597L30.7227 31.3909Z" fill="#EE9695"/>
</svg>
